_Griffith_Gothic-Ultra_WebTT.ufo
<glyph name="exclam" format="1">
  <advance width="626.688"/>
  <unicode hex="0021"/>
  <outline>
    <contour>
      <point x="313" y="416" type="qcurve" smooth="yes"/>
      <point x="404.791044776" y="416.0"/>
      <point x="528.0" y="292.791044776"/>
      <point x="528" y="201" type="qcurve" smooth="yes"/>
      <point x="528.0" y="109.208955224"/>
      <point x="404.791044776" y="-14.0"/>
      <point x="313" y="-14" type="qcurve" smooth="yes"/>
      <point x="221.208955224" y="-14.0"/>
      <point x="98.0" y="109.208955224"/>
      <point x="98" y="201" type="qcurve" smooth="yes"/>
      <point x="98.0" y="292.791044776"/>
      <point x="221.208955224" y="416.0"/>
    </contour>
    <contour>
      <point x="66" y="1475" type="line"/>
      <point x="561" y="1475" type="line"/>
      <point x="438" y="518" type="line"/>
      <point x="188" y="518" type="line"/>
    </contour>
  </outline>
</glyph>
<glyph name="dollar" format="1">
  <advance width="1255.424"/>
  <unicode hex="0024"/>
  <outline>
    <contour>
      <point x="702" y="887" type="line"/>
      <point x="993.044776119" y="811.626865672"/>
      <point x="1221.0" y="624.029850746"/>
      <point x="1221" y="430" type="qcurve" smooth="yes"/>
      <point x="1221.0" y="256.119402985"/>
      <point x="964.582089552" y="27.6417910448"/>
      <point x="731" y="6" type="qcurve"/>
      <point x="731" y="-195" type="line"/>
      <point x="518" y="-195" type="line"/>
      <point x="518" y="8" type="line"/>
      <point x="353.074626866" y="23.671641791"/>
      <point x="108.776119403" y="144.432835821"/>
      <point x="14" y="231" type="qcurve"/>
      <point x="223" y="475" type="line"/>
      <point x="288.671641791" y="413.805970149"/>
      <point x="450.731343284" y="310.910447761"/>
      <point x="547" y="293" type="qcurve"/>
      <point x="547" y="594" type="line"/>
      <point x="282.820895522" y="662.656716418"/>
      <point x="59.0" y="856.686567164"/>
      <point x="59" y="1044" type="qcurve" smooth="yes"/>
      <point x="59.0" y="1235.04477612"/>
      <point x="316.507462687" y="1448.59701493"/>
      <point x="518" y="1468" type="qcurve"/>
      <point x="518" y="1561" type="line"/>
      <point x="731" y="1561" type="line"/>
      <point x="731" y="1468" type="line"/>
      <point x="868.313432836" y="1456.05970149"/>
      <point x="1067.20895522" y="1370.3880597"/>
      <point x="1159" y="1298" type="qcurve"/>
      <point x="950" y="1055" type="line"/>
      <point x="888.805970149" y="1100.52238806"/>
      <point x="768.417910448" y="1167.82089552"/>
      <point x="702" y="1182" type="qcurve"/>
    </contour>
    <contour>
      <point x="414" y="1063" type="qcurve" smooth="yes"/>
      <point x="414.0" y="1020.46268657"/>
      <point x="476.850746269" y="954.119402985"/>
      <point x="547" y="928" type="qcurve"/>
      <point x="547" y="1188" type="line"/>
      <point x="478.343283582" y="1179.04477612"/>
      <point x="414.0" y="1115.23880597"/>
    </contour>
    <contour>
      <point x="702" y="285" type="line"/>
      <point x="787.820895522" y="293.955223881"/>
      <point x="866.0" y="360.268656716"/>
      <point x="866" y="414" type="qcurve" smooth="yes"/>
      <point x="866.0" y="464.0"/>
      <point x="795.28358209" y="527.388059701"/>
      <point x="702" y="555" type="qcurve"/>
    </contour>
  </outline>
</glyph>
<glyph name="ampersand" format="1">
  <advance width="1515.52"/>
  <unicode hex="0026"/>
  <outline>
    <contour>
      <point x="1479" y="293" type="qcurve"/>
      <point x="1479" y="2" type="line"/>
      <point x="1434.2238806" y="-5.46268656716"/>
      <point x="1365.53731343" y="-14.0"/>
      <point x="1323" y="-14" type="qcurve" smooth="yes"/>
      <point x="1220.76119403" y="-14.0"/>
      <point x="1057.56716418" y="32.8358208955"/>
      <point x="971" y="100" type="qcurve"/>
      <point x="877.71641791" y="38.8059701493"/>
      <point x="675.955223881" y="-20.0"/>
      <point x="567" y="-20" type="qcurve" smooth="yes"/>
      <point x="311.776119403" y="-20.0"/>
      <point x="25.0" y="198.805970149"/>
      <point x="25" y="410" type="qcurve" smooth="yes"/>
      <point x="25.0" y="544.328358209"/>
      <point x="163.880597015" y="744.71641791"/>
      <point x="340" y="838" type="qcurve"/>
      <point x="280.298507463" y="927.552238806"/>
      <point x="231.0" y="1065.62686567"/>
      <point x="231" y="1141" type="qcurve" smooth="yes"/>
      <point x="231.0" y="1307.41791045"/>
      <point x="464.268656716" y="1499.0"/>
      <point x="668" y="1499" type="qcurve" smooth="yes"/>
      <point x="852.328358209" y="1499.0"/>
      <point x="1053.0" y="1307.0"/>
      <point x="1053" y="1157" type="qcurve" smooth="yes"/>
      <point x="1053.0" y="1048.79104478"/>
      <point x="919.865671642" y="882.134328358"/>
      <point x="793" y="809" type="qcurve"/>
      <point x="851.955223881" y="735.865671642"/>
      <point x="957.731343284" y="611.746268657"/>
      <point x="1004" y="561" type="qcurve"/>
      <point x="1048.02985075" y="632.641791045"/>
      <point x="1127.92537313" y="813.52238806"/>
      <point x="1163" y="918" type="qcurve"/>
      <point x="1464" y="791" type="line"/>
      <point x="1408.02985075" y="651.447761194"/>
      <point x="1279.40298507" y="422.298507463"/>
      <point x="1210" y="332" type="qcurve"/>
      <point x="1250.29850746" y="299.910447761"/>
      <point x="1313.70149254" y="276.0"/>
      <point x="1354" y="276" type="qcurve" smooth="yes"/>
      <point x="1392.05970149" y="276.0"/>
      <point x="1446.91044776" y="285.537313433"/>
    </contour>
    <contour>
      <point x="633" y="264" type="qcurve" smooth="yes"/>
      <point x="665.089552239" y="264.0"/>
      <point x="732.417910448" y="282.850746269"/>
      <point x="766" y="303" type="qcurve"/>
      <point x="707.791044776" y="368.671641791"/>
      <point x="568.850746269" y="534.253731343"/>
      <point x="489" y="635" type="qcurve"/>
      <point x="452.432835821" y="599.925373134"/>
      <point x="422.0" y="519.268656716"/>
      <point x="422" y="473" type="qcurve" smooth="yes"/>
      <point x="422.0" y="379.71641791"/>
      <point x="536.731343284" y="264.0"/>
    </contour>
    <contour>
      <point x="635" y="979" type="qcurve"/>
      <point x="691.71641791" y="1021.53731343"/>
      <point x="745.0" y="1111.95522388"/>
      <point x="745" y="1153" type="qcurve" smooth="yes"/>
      <point x="745.0" y="1208.2238806"/>
      <point x="702.76119403" y="1276.0"/>
      <point x="655" y="1276" type="qcurve" smooth="yes"/>
      <point x="605.0" y="1276.0"/>
      <point x="559.0" y="1212.76119403"/>
      <point x="559" y="1165" type="qcurve" smooth="yes"/>
      <point x="559.0" y="1122.46268657"/>
      <point x="588.731343284" y="1043.17910448"/>
    </contour>
  </outline>
</glyph>
<glyph name="parenleft" format="1">
  <advance width="841.728"/>
  <unicode hex="0028"/>
  <outline>
    <contour>
      <point x="500" y="655" type="qcurve" smooth="yes"/>
      <point x="500.0" y="436.343283582"/>
      <point x="648.925373134" y="20.671641791"/>
      <point x="834" y="-195" type="qcurve"/>
      <point x="471" y="-195" type="line"/>
      <point x="301.597014925" y="-43.5074626866"/>
      <point x="61.0" y="374.402985075"/>
      <point x="61" y="655" type="qcurve" smooth="yes"/>
      <point x="61.0" y="936.343283582"/>
      <point x="301.597014925" y="1354.25373134"/>
      <point x="471" y="1505" type="qcurve"/>
      <point x="834" y="1505" type="line"/>
      <point x="648.925373134" y="1290.07462687"/>
      <point x="500.0" y="873.656716418"/>
    </contour>
  </outline>
</glyph>
<glyph name="parenright" format="1">
  <advance width="841.728"/>
  <unicode hex="0029"/>
  <outline>
    <contour>
      <point x="371" y="1505" type="line"/>
      <point x="540.402985075" y="1354.25373134"/>
      <point x="780.0" y="936.343283582"/>
      <point x="780" y="655" type="qcurve" smooth="yes"/>
      <point x="780.0" y="374.402985075"/>
      <point x="540.402985075" y="-43.5074626866"/>
      <point x="371" y="-195" type="qcurve"/>
      <point x="8" y="-195" type="line"/>
      <point x="193.074626866" y="20.671641791"/>
      <point x="342.0" y="436.343283582"/>
      <point x="342" y="655" type="qcurve" smooth="yes"/>
      <point x="342.0" y="873.656716418"/>
      <point x="193.074626866" y="1290.07462687"/>
      <point x="8" y="1505" type="qcurve"/>
    </contour>
  </outline>
</glyph>
<glyph name="comma" format="1">
  <advance width="548.864"/>
  <unicode hex="002C"/>
  <outline>
    <contour>
      <point x="96" y="426" type="line"/>
      <point x="532" y="426" type="line"/>
      <point x="270" y="-231" type="line"/>
      <point x="47" y="-231" type="line"/>
    </contour>
  </outline>
</glyph>
<glyph name="period" format="1">
  <advance width="548.864"/>
  <unicode hex="002E"/>
  <outline>
    <contour>
      <point x="274" y="436" type="qcurve" smooth="yes"/>
      <point x="370.268656716" y="436.0"/>
      <point x="500.0" y="307.268656716"/>
      <point x="500" y="211" type="qcurve" smooth="yes"/>
      <point x="500.0" y="114.731343284"/>
      <point x="370.268656716" y="-14.0"/>
      <point x="274" y="-14" type="qcurve" smooth="yes"/>
      <point x="177.731343284" y="-14.0"/>
      <point x="49.0" y="114.731343284"/>
      <point x="49" y="211" type="qcurve" smooth="yes"/>
      <point x="49.0" y="307.268656716"/>
      <point x="177.731343284" y="436.0"/>
    </contour>
  </outline>
</glyph>
<glyph name="one" format="1">
  <advance width="942.08"/>
  <unicode hex="0031"/>
  <outline>
    <contour>
      <point x="913" y="256" type="line"/>
      <point x="913" y="0" type="line"/>
      <point x="70" y="0" type="line"/>
      <point x="70" y="256" type="line"/>
      <point x="274" y="256" type="line"/>
      <point x="274" y="1219" type="line"/>
      <point x="45" y="1219" type="line"/>
      <point x="45" y="1475" type="line"/>
      <point x="709" y="1475" type="line"/>
      <point x="709" y="256" type="line"/>
    </contour>
  </outline>
</glyph>
<glyph name="three" format="1">
  <advance width="1157.12"/>
  <unicode hex="0033"/>
  <outline>
    <contour>
      <point x="750" y="838" type="line"/>
      <point x="925.373134328" y="835.014925373"/>
      <point x="1128.0" y="674.925373134"/>
      <point x="1128" y="510" type="qcurve" smooth="yes"/>
      <point x="1128.0" y="257.76119403"/>
      <point x="601.71641791" y="-14.9850746269"/>
      <point x="45" y="-12" type="qcurve"/>
      <point x="45" y="285" type="line"/>
      <point x="416.641791045" y="292.462686567"/>
      <point x="700.0" y="422.179104478"/>
      <point x="700" y="508" type="qcurve" smooth="yes"/>
      <point x="700.0" y="575.164179104"/>
      <point x="619.179104478" y="637.0"/>
      <point x="555" y="637" type="qcurve" smooth="yes"/>
      <point x="507.985074627" y="637.0"/>
      <point x="409.223880597" y="618.656716418"/>
      <point x="354" y="600" type="qcurve"/>
      <point x="258" y="842" type="line"/>
      <point x="499.791044776" y="932.298507463"/>
      <point x="639.0" y="1031.85074627"/>
      <point x="639" y="1102" type="qcurve" smooth="yes"/>
      <point x="639.0" y="1144.53731343"/>
      <point x="581.253731343" y="1196.0"/>
      <point x="532" y="1196" type="qcurve" smooth="yes"/>
      <point x="474.537313433" y="1196.0"/>
      <point x="341.791044776" y="1130.80597015"/>
      <point x="250" y="1042" type="qcurve"/>
      <point x="29" y="1245" type="line"/>
      <point x="160.343283582" y="1379.32835821"/>
      <point x="423.104477612" y="1499.0"/>
      <point x="594" y="1499" type="qcurve" smooth="yes"/>
      <point x="817.134328358" y="1499.0"/>
      <point x="1047.0" y="1316.80597015"/>
      <point x="1047" y="1178" type="qcurve" smooth="yes"/>
      <point x="1047.0" y="1057.10447761"/>
      <point x="890.298507463" y="901.223880597"/>
      <point x="750" y="846" type="qcurve"/>
    </contour>
  </outline>
</glyph>
<glyph name="six" format="1">
  <advance width="1280.0"/>
  <unicode hex="0036"/>
  <outline>
    <contour>
      <point x="799" y="981" type="qcurve" smooth="yes"/>
      <point x="981.835820896" y="981.0"/>
      <point x="1233.0" y="742.567164179"/>
      <point x="1233" y="506" type="qcurve" smooth="yes"/>
      <point x="1233.0" y="255.253731343"/>
      <point x="924.313432836" y="-25.0"/>
      <point x="637" y="-25" type="qcurve" smooth="yes"/>
      <point x="352.671641791" y="-25.0"/>
      <point x="55.0" y="250.223880597"/>
      <point x="55" y="545" type="qcurve" smooth="yes"/>
      <point x="55.0" y="786.044776119"/>
      <point x="317.895522388" y="1269.7761194"/>
      <point x="547" y="1475" type="qcurve"/>
      <point x="1063" y="1475" type="line"/>
      <point x="821.208955224" y="1312.31343284"/>
      <point x="518.253731343" y="998.641791045"/>
      <point x="469" y="877" type="qcurve"/>
      <point x="481" y="877" type="line"/>
      <point x="539.208955224" y="922.52238806"/>
      <point x="685.567164179" y="981.0"/>
    </contour>
    <contour>
      <point x="643" y="258" type="qcurve" smooth="yes"/>
      <point x="734.791044776" y="258.0"/>
      <point x="813.0" y="387.208955224"/>
      <point x="813" y="479" type="qcurve" smooth="yes"/>
      <point x="813.0" y="570.791044776"/>
      <point x="734.791044776" y="700.0"/>
      <point x="643" y="700" type="qcurve" smooth="yes"/>
      <point x="551.208955224" y="700.0"/>
      <point x="473.0" y="570.791044776"/>
      <point x="473" y="479" type="qcurve" smooth="yes"/>
      <point x="473.0" y="387.208955224"/>
      <point x="551.208955224" y="258.0"/>
    </contour>
  </outline>
</glyph>
<glyph name="nine" format="1">
  <advance width="1280.0"/>
  <unicode hex="0039"/>
  <outline>
    <contour>
      <point x="643" y="1499" type="qcurve" smooth="yes"/>
      <point x="927.328358209" y="1499.0"/>
      <point x="1225.0" y="1224.7761194"/>
      <point x="1225" y="930" type="qcurve" smooth="yes"/>
      <point x="1225.0" y="688.208955224"/>
      <point x="962.104477612" y="204.47761194"/>
      <point x="733" y="0" type="qcurve"/>
      <point x="217" y="0" type="line"/>
      <point x="458.791044776" y="161.940298507"/>
      <point x="761.746268657" y="475.611940299"/>
      <point x="811" y="598" type="qcurve"/>
      <point x="799" y="598" type="line"/>
      <point x="740.791044776" y="552.47761194"/>
      <point x="594.432835821" y="494.0"/>
      <point x="481" y="494" type="qcurve" smooth="yes"/>
      <point x="298.164179104" y="494.0"/>
      <point x="47.0" y="731.686567164"/>
      <point x="47" y="969" type="qcurve" smooth="yes"/>
      <point x="47.0" y="1219.74626866"/>
      <point x="355.686567164" y="1499.0"/>
    </contour>
    <contour>
      <point x="637" y="774" type="qcurve" smooth="yes"/>
      <point x="728.791044776" y="774.0"/>
      <point x="807.0" y="903.208955224"/>
      <point x="807" y="995" type="qcurve" smooth="yes"/>
      <point x="807.0" y="1086.79104478"/>
      <point x="728.791044776" y="1217.0"/>
      <point x="637" y="1217" type="qcurve" smooth="yes"/>
      <point x="545.208955224" y="1217.0"/>
      <point x="467.0" y="1086.79104478"/>
      <point x="467" y="995" type="qcurve" smooth="yes"/>
      <point x="467.0" y="903.208955224"/>
      <point x="545.208955224" y="774.0"/>
    </contour>
  </outline>
</glyph>
<glyph name="colon" format="1">
  <advance width="569.344"/>
  <unicode hex="003A"/>
  <outline>
    <contour>
      <point x="285" y="436" type="qcurve" smooth="yes"/>
      <point x="381.268656716" y="436.0"/>
      <point x="510.0" y="307.268656716"/>
      <point x="510" y="211" type="qcurve" smooth="yes"/>
      <point x="510.0" y="114.731343284"/>
      <point x="381.268656716" y="-14.0"/>
      <point x="285" y="-14" type="qcurve" smooth="yes"/>
      <point x="188.731343284" y="-14.0"/>
      <point x="59.0" y="114.731343284"/>
      <point x="59" y="211" type="qcurve" smooth="yes"/>
      <point x="59.0" y="307.268656716"/>
      <point x="188.731343284" y="436.0"/>
    </contour>
    <contour>
      <point x="285" y="1124" type="qcurve" smooth="yes"/>
      <point x="381.268656716" y="1124.0"/>
      <point x="510.0" y="995.268656716"/>
      <point x="510" y="899" type="qcurve" smooth="yes"/>
      <point x="510.0" y="802.731343284"/>
      <point x="381.268656716" y="674.0"/>
      <point x="285" y="674" type="qcurve" smooth="yes"/>
      <point x="188.731343284" y="674.0"/>
      <point x="59.0" y="802.731343284"/>
      <point x="59" y="899" type="qcurve" smooth="yes"/>
      <point x="59.0" y="995.268656716"/>
      <point x="188.731343284" y="1124.0"/>
    </contour>
  </outline>
</glyph>
<glyph name="semicolon" format="1">
  <advance width="569.344"/>
  <unicode hex="003B"/>
  <outline>
    <contour>
      <point x="295" y="1124" type="qcurve" smooth="yes"/>
      <point x="391.268656716" y="1124.0"/>
      <point x="520.0" y="995.268656716"/>
      <point x="520" y="899" type="qcurve" smooth="yes"/>
      <point x="520.0" y="802.731343284"/>
      <point x="391.268656716" y="674.0"/>
      <point x="295" y="674" type="qcurve" smooth="yes"/>
      <point x="198.731343284" y="674.0"/>
      <point x="70.0" y="802.731343284"/>
      <point x="70" y="899" type="qcurve" smooth="yes"/>
      <point x="70.0" y="995.268656716"/>
      <point x="198.731343284" y="1124.0"/>
    </contour>
    <contour>
      <point x="96" y="426" type="line"/>
      <point x="532" y="426" type="line"/>
      <point x="270" y="-231" type="line"/>
      <point x="47" y="-231" type="line"/>
    </contour>
  </outline>
</glyph>
<glyph name="question" format="1">
  <advance width="1089.536"/>
  <unicode hex="003F"/>
  <outline>
    <contour>
      <point x="551" y="1499" type="qcurve" smooth="yes"/>
      <point x="792.044776119" y="1499.0"/>
      <point x="1049.0" y="1275.82089552"/>
      <point x="1049" y="1090" type="qcurve" smooth="yes"/>
      <point x="1049.0" y="942.985074627"/>
      <point x="926.373134328" y="770.895522388"/>
      <point x="801" y="700" type="qcurve" smooth="yes"/>
      <point x="713.686567164" y="650.0"/>
      <point x="626.686567164" y="568.746268657"/>
      <point x="614" y="518" type="qcurve"/>
      <point x="356" y="518" type="line"/>
      <point x="336.597014925" y="653.820895522"/>
      <point x="414.268656716" y="802.641791045"/>
      <point x="518" y="881" type="qcurve" smooth="yes"/>
      <point x="579.194029851" y="926.52238806"/>
      <point x="633.0" y="1017.26865672"/>
      <point x="633" y="1071" type="qcurve" smooth="yes"/>
      <point x="633.0" y="1121.74626866"/>
      <point x="582.746268657" y="1182.0"/>
      <point x="532" y="1182" type="qcurve" smooth="yes"/>
      <point x="482.0" y="1182.0"/>
      <point x="387.701492537" y="1091.07462687"/>
      <point x="328" y="956" type="qcurve"/>
      <point x="12" y="1102" type="line"/>
      <point x="88.8656716418" y="1294.53731343"/>
      <point x="330.850746269" y="1499.0"/>
    </contour>
    <contour>
      <point x="483" y="416" type="qcurve" smooth="yes"/>
      <point x="574.791044776" y="416.0"/>
      <point x="698.0" y="292.791044776"/>
      <point x="698" y="201" type="qcurve" smooth="yes"/>
      <point x="698.0" y="109.208955224"/>
      <point x="574.791044776" y="-14.0"/>
      <point x="483" y="-14" type="qcurve" smooth="yes"/>
      <point x="391.208955224" y="-14.0"/>
      <point x="268.0" y="109.208955224"/>
      <point x="268" y="201" type="qcurve" smooth="yes"/>
      <point x="268.0" y="292.791044776"/>
      <point x="391.208955224" y="416.0"/>
    </contour>
  </outline>
</glyph>
<glyph name="A" format="1">
  <advance width="1433.6"/>
  <unicode hex="0041"/>
  <outline>
    <contour>
      <point x="999" y="1479" type="line"/>
      <point x="1417" y="0" type="line"/>
      <point x="967" y="0" type="line"/>
      <point x="903" y="295" type="line"/>
      <point x="518" y="295" type="line"/>
      <point x="455" y="0" type="line"/>
      <point x="16" y="0" type="line"/>
      <point x="434" y="1479" type="line"/>
    </contour>
    <contour>
      <point x="580" y="573" type="line"/>
      <point x="842" y="573" type="line"/>
      <point x="715" y="1161" type="line"/>
      <point x="707" y="1161" type="line"/>
    </contour>
  </outline>
</glyph>
<glyph name="C" format="1">
  <advance width="1286.144"/>
  <unicode hex="0043"/>
  <outline>
    <contour>
      <point x="848" y="575" type="qcurve"/>
      <point x="1255" y="481" type="line"/>
      <point x="1215.44776119" y="231.746268657"/>
      <point x="923.731343284" y="-25.0"/>
      <point x="670" y="-25" type="qcurve" smooth="yes"/>
      <point x="402.089552239" y="-25.0"/>
      <point x="61.0" y="321.970149254"/>
      <point x="61" y="666" type="qcurve" smooth="yes"/>
      <point x="61" y="809" type="line" smooth="yes"/>
      <point x="61.0" y="1153.02985075"/>
      <point x="402.089552239" y="1499.0"/>
      <point x="670" y="1499" type="qcurve" smooth="yes"/>
      <point x="960.298507463" y="1499.0"/>
      <point x="1220.40298507" y="1203.65671642"/>
      <point x="1251" y="985" type="qcurve"/>
      <point x="827" y="889" type="line"/>
      <point x="812.074626866" y="1039.0"/>
      <point x="744.626865672" y="1167.0"/>
      <point x="670" y="1167" type="qcurve" smooth="yes"/>
      <point x="585.671641791" y="1167.0"/>
      <point x="520.0" y="1007.55223881"/>
      <point x="520" y="868" type="qcurve" smooth="yes"/>
      <point x="520" y="606" type="line" smooth="yes"/>
      <point x="520.0" y="467.194029851"/>
      <point x="588.686567164" y="307.0"/>
      <point x="676" y="307" type="qcurve" smooth="yes"/>
      <point x="752.119402985" y="307.0"/>
      <point x="826.358208955" y="427.23880597"/>
    </contour>
  </outline>
</glyph>
<glyph name="D" format="1">
  <advance width="1331.2"/>
  <unicode hex="0044"/>
  <outline>
    <contour>
      <point x="1276" y="793" type="qcurve" smooth="yes"/>
      <point x="1276" y="682" type="line" smooth="yes"/>
      <point x="1276.0" y="342.447761194"/>
      <point x="937.641791045" y="0.0"/>
      <point x="666" y="0" type="qcurve" smooth="yes"/>
      <point x="86" y="0" type="line"/>
      <point x="86" y="1475" type="line"/>
      <point x="666" y="1475" type="line" smooth="yes"/>
      <point x="937.641791045" y="1475.0"/>
      <point x="1276.0" y="1131.80597015"/>
    </contour>
    <contour>
      <point x="649" y="332" type="line" smooth="yes"/>
      <point x="736.313432836" y="332.0"/>
      <point x="817.0" y="480.044776119"/>
      <point x="817" y="639" type="qcurve" smooth="yes"/>
      <point x="817" y="836" type="line" smooth="yes"/>
      <point x="817.0" y="994.955223881"/>
      <point x="736.313432836" y="1143.0"/>
      <point x="649" y="1143" type="qcurve" smooth="yes"/>
      <point x="518" y="1143" type="line"/>
      <point x="518" y="332" type="line"/>
    </contour>
  </outline>
</glyph>
<glyph name="E" format="1">
  <advance width="1161.216"/>
  <unicode hex="0045"/>
  <outline>
    <contour>
      <point x="1114" y="340" type="line"/>
      <point x="1114" y="0" type="line"/>
      <point x="86" y="0" type="line"/>
      <point x="86" y="1475" type="line"/>
      <point x="1090" y="1475" type="line"/>
      <point x="1090" y="1135" type="line"/>
      <point x="520" y="1135" type="line"/>
      <point x="520" y="915" type="line"/>
      <point x="909" y="915" type="line"/>
      <point x="909" y="596" type="line"/>
      <point x="520" y="596" type="line"/>
      <point x="520" y="340" type="line"/>
    </contour>
  </outline>
</glyph>
<glyph name="G" format="1">
  <advance width="1372.16"/>
  <unicode hex="0047"/>
  <outline>
    <contour>
      <point x="1298" y="731" type="line"/>
      <point x="1298" y="-6" type="line"/>
      <point x="1147" y="-6" type="line"/>
      <point x="1085" y="201" type="line"/>
      <point x="1075" y="201" type="line"/>
      <point x="1009.32835821" y="90.552238806"/>
      <point x="793.029850746" y="-25.0"/>
      <point x="649" y="-25" type="qcurve" smooth="yes"/>
      <point x="377.358208955" y="-25.0"/>
      <point x="61.0" y="321.970149254"/>
      <point x="61" y="666" type="qcurve" smooth="yes"/>
      <point x="61" y="809" type="line" smooth="yes"/>
      <point x="61.0" y="1153.02985075"/>
      <point x="404.626865672" y="1499.0"/>
      <point x="680" y="1499" type="qcurve" smooth="yes"/>
      <point x="973.28358209" y="1499.0"/>
      <point x="1236.92537313" y="1208.13432836"/>
      <point x="1272" y="985" type="qcurve"/>
      <point x="848" y="889" type="line"/>
      <point x="832.328358209" y="1032.28358209"/>
      <point x="759.104477612" y="1167.0"/>
      <point x="680" y="1167" type="qcurve" smooth="yes"/>
      <point x="595.671641791" y="1167.0"/>
      <point x="520.0" y="1022.47761194"/>
      <point x="520" y="868" type="qcurve" smooth="yes"/>
      <point x="520" y="606" type="line" smooth="yes"/>
      <point x="520.0" y="444.059701493"/>
      <point x="606.417910448" y="307.0"/>
      <point x="690" y="307" type="qcurve" smooth="yes"/>
      <point x="771.343283582" y="307.0"/>
      <point x="855.52238806" y="430.985074627"/>
      <point x="860" y="578" type="qcurve"/>
      <point x="682" y="578" type="line"/>
      <point x="682" y="731" type="line"/>
    </contour>
  </outline>
</glyph>
<glyph name="I" format="1">
  <advance width="954.368"/>
  <unicode hex="0049"/>
  <outline>
    <contour>
      <point x="893" y="154" type="line"/>
      <point x="893" y="0" type="line"/>
      <point x="61" y="0" type="line"/>
      <point x="61" y="154" type="line"/>
      <point x="256" y="154" type="line"/>
      <point x="256" y="1321" type="line"/>
      <point x="61" y="1321" type="line"/>
      <point x="61" y="1475" type="line"/>
      <point x="893" y="1475" type="line"/>
      <point x="893" y="1321" type="line"/>
      <point x="698" y="1321" type="line"/>
      <point x="698" y="154" type="line"/>
    </contour>
  </outline>
</glyph>
<glyph name="J" format="1">
  <advance width="1181.696"/>
  <unicode hex="004A"/>
  <outline>
    <contour>
      <point x="1102" y="1475" type="line"/>
      <point x="1102" y="502" type="line" smooth="yes"/>
      <point x="1102.0" y="229.611940299"/>
      <point x="814.134328358" y="-25.0"/>
      <point x="541" y="-25" type="qcurve" smooth="yes"/>
      <point x="279.059701493" y="-25.0"/>
      <point x="32.1791044776" y="223.298507463"/>
      <point x="18" y="483" type="qcurve"/>
      <point x="430" y="547" type="line"/>
      <point x="434.47761194" y="427.597014925"/>
      <point x="487.805970149" y="322.0"/>
      <point x="549" y="322" type="qcurve" smooth="yes"/>
      <point x="605.71641791" y="322.0"/>
      <point x="659.0" y="396.940298507"/>
      <point x="659" y="485" type="qcurve" smooth="yes"/>
      <point x="659" y="1475" type="line"/>
    </contour>
  </outline>
</glyph>
<glyph name="K" format="1">
  <advance width="1406.976"/>
  <unicode hex="004B"/>
  <outline>
    <contour>
      <point x="999" y="809" type="line"/>
      <point x="1415" y="0" type="line"/>
      <point x="936" y="0" type="line"/>
      <point x="547" y="791" type="line"/>
      <point x="547" y="795" type="line"/>
      <point x="905" y="1475" type="line"/>
      <point x="1380" y="1475" type="line"/>
    </contour>
    <contour>
      <point x="528" y="1475" type="line"/>
      <point x="528" y="0" type="line"/>
      <point x="86" y="0" type="line"/>
      <point x="86" y="1475" type="line"/>
    </contour>
  </outline>
</glyph>
<glyph name="M" format="1">
  <advance width="1888.256"/>
  <unicode hex="004D"/>
  <outline>
    <contour>
      <point x="1802" y="1475" type="line"/>
      <point x="1802" y="0" type="line"/>
      <point x="1399" y="0" type="line"/>
      <point x="1399" y="975" type="line"/>
      <point x="1389" y="975" type="line"/>
      <point x="1147" y="0" type="line"/>
      <point x="729" y="0" type="line"/>
      <point x="487" y="975" type="line"/>
      <point x="477" y="975" type="line"/>
      <point x="477" y="0" type="line"/>
      <point x="86" y="0" type="line"/>
      <point x="86" y="1475" type="line"/>
      <point x="731" y="1475" type="line"/>
      <point x="946" y="598" type="line"/>
      <point x="954" y="598" type="line"/>
      <point x="1169" y="1475" type="line"/>
    </contour>
  </outline>
</glyph>
<glyph name="Q" format="1">
  <advance width="1359.872"/>
  <unicode hex="0051"/>
  <outline>
    <contour>
      <point x="1362" y="4" type="qcurve"/>
      <point x="1362" y="-254" type="line"/>
      <point x="1341.85074627" y="-258.47761194"/>
      <point x="1299.58208955" y="-264.0"/>
      <point x="1266" y="-264" type="qcurve" smooth="yes"/>
      <point x="1160.02985075" y="-264.0"/>
      <point x="1025.17910448" y="-201.537313433"/>
      <point x="961" y="-109" type="qcurve" smooth="yes"/>
      <point x="885" y="2" type="line"/>
      <point x="838.731343284" y="-9.94029850746"/>
      <point x="735.223880597" y="-25.0"/>
      <point x="680" y="-25" type="qcurve" smooth="yes"/>
      <point x="404.626865672" y="-25.0"/>
      <point x="61.0" y="321.970149254"/>
      <point x="61" y="666" type="qcurve" smooth="yes"/>
      <point x="61" y="809" type="line" smooth="yes"/>
      <point x="61.0" y="1153.02985075"/>
      <point x="404.626865672" y="1499.0"/>
      <point x="680" y="1499" type="qcurve" smooth="yes"/>
      <point x="955.373134328" y="1499.0"/>
      <point x="1298.0" y="1153.02985075"/>
      <point x="1298" y="809" type="qcurve" smooth="yes"/>
      <point x="1298" y="666" type="line" smooth="yes"/>
      <point x="1298.0" y="479.432835821"/>
      <point x="1193.28358209" y="204.582089552"/>
      <point x="1100" y="121" type="qcurve"/>
      <point x="1145" y="61" type="line" smooth="yes"/>
      <point x="1172.6119403" y="24.4328358209"/>
      <point x="1232.47761194" y="-6.0"/>
      <point x="1278" y="-6" type="qcurve" smooth="yes"/>
      <point x="1296.65671642" y="-6.0"/>
      <point x="1341.85074627" y="-0.477611940299"/>
    </contour>
    <contour>
      <point x="831" y="432" type="line"/>
      <point x="836.223880597" y="461.104477612"/>
      <point x="840.0" y="526.940298507"/>
      <point x="840" y="565" type="qcurve" smooth="yes"/>
      <point x="840" y="868" type="line" smooth="yes"/>
      <point x="840.0" y="1022.47761194"/>
      <point x="764.328358209" y="1167.0"/>
      <point x="680" y="1167" type="qcurve" smooth="yes"/>
      <point x="595.671641791" y="1167.0"/>
      <point x="520.0" y="1022.47761194"/>
      <point x="520" y="868" type="qcurve" smooth="yes"/>
      <point x="520" y="565" type="line" smooth="yes"/>
      <point x="520.0" y="410.52238806"/>
      <point x="595.671641791" y="266.0"/>
      <point x="680" y="266" type="qcurve" smooth="yes"/>
      <point x="694.925373134" y="266.0"/>
      <point x="723.059701493" y="271.52238806"/>
      <point x="735" y="276" type="qcurve"/>
      <point x="600" y="479" type="line"/>
      <point x="737" y="567" type="line"/>
    </contour>
  </outline>
</glyph>
<glyph name="S" format="1">
  <advance width="1265.664"/>
  <unicode hex="0053"/>
  <outline>
    <contour>
      <point x="737" y="924" type="qcurve" smooth="yes"/>
      <point x="1022.82089552" y="856.835820896"/>
      <point x="1225.0" y="629.358208955"/>
      <point x="1225" y="451" type="qcurve" smooth="yes"/>
      <point x="1225.0" y="216.671641791"/>
      <point x="916.850746269" y="-18.0"/>
      <point x="637" y="-18" type="qcurve" smooth="yes"/>
      <point x="422.820895522" y="-18.0"/>
      <point x="135.910447761" y="100.104477612"/>
      <point x="18" y="221" type="qcurve"/>
      <point x="283" y="481" type="line"/>
      <point x="363.597014925" y="398.910447761"/>
      <point x="549.746268657" y="303.0"/>
      <point x="649" y="303" type="qcurve" smooth="yes"/>
      <point x="746.76119403" y="303.0"/>
      <point x="829.0" y="355.47761194"/>
      <point x="829" y="401" type="qcurve" smooth="yes"/>
      <point x="829.0" y="448.76119403"/>
      <point x="716.880597015" y="511.447761194"/>
      <point x="543" y="551" type="qcurve" smooth="yes"/>
      <point x="270.611940299" y="613.686567164"/>
      <point x="63.0" y="832.955223881"/>
      <point x="63" y="1024" type="qcurve" smooth="yes"/>
      <point x="63.0" y="1247.13432836"/>
      <point x="360.552238806" y="1493.0"/>
      <point x="621" y="1493" type="qcurve" smooth="yes"/>
      <point x="818.014925373" y="1493.0"/>
      <point x="1068.02985075" y="1391.73134328"/>
      <point x="1174" y="1288" type="qcurve"/>
      <point x="909" y="1028" type="line"/>
      <point x="834.373134328" y="1099.64179104"/>
      <point x="688.358208955" y="1171.0"/>
      <point x="610" y="1171" type="qcurve" smooth="yes"/>
      <point x="532.388059701" y="1171.0"/>
      <point x="459.0" y="1119.7761194"/>
      <point x="459" y="1075" type="qcurve" smooth="yes"/>
      <point x="459.0" y="1033.95522388"/>
      <point x="558.641791045" y="965.044776119"/>
    </contour>
  </outline>
</glyph>
<glyph name="U" format="1">
  <advance width="1306.624"/>
  <unicode hex="0055"/>
  <outline>
    <contour>
      <point x="1235" y="1475" type="line"/>
      <point x="1235" y="563" type="line" smooth="yes"/>
      <point x="1235.0" y="256.28358209"/>
      <point x="920.402985075" y="-25.0"/>
      <point x="651" y="-25" type="qcurve" smooth="yes"/>
      <point x="382.343283582" y="-25.0"/>
      <point x="72.0" y="256.28358209"/>
      <point x="72" y="563" type="qcurve" smooth="yes"/>
      <point x="72" y="1475" type="line"/>
      <point x="514" y="1475" type="line"/>
      <point x="514" y="547" type="line" smooth="yes"/>
      <point x="514.0" y="427.597014925"/>
      <point x="590.626865672" y="322.0"/>
      <point x="666" y="322" type="qcurve" smooth="yes"/>
      <point x="740.626865672" y="322.0"/>
      <point x="813.0" y="427.597014925"/>
      <point x="813" y="547" type="qcurve" smooth="yes"/>
      <point x="813" y="1475" type="line"/>
    </contour>
  </outline>
</glyph>
<glyph name="V" format="1">
  <advance width="1413.12"/>
  <unicode hex="0056"/>
  <outline>
    <contour>
      <point x="950" y="1475" type="line"/>
      <point x="1397" y="1475" type="line"/>
      <point x="948" y="-8" type="line"/>
      <point x="465" y="-8" type="line"/>
      <point x="16" y="1475" type="line"/>
      <point x="475" y="1475" type="line"/>
      <point x="709" y="473" type="line"/>
      <point x="717" y="473" type="line"/>
    </contour>
  </outline>
</glyph>
<glyph name="X" format="1">
  <advance width="1359.872"/>
  <unicode hex="0058"/>
  <outline>
    <contour>
      <point x="913" y="784" type="line"/>
      <point x="1348" y="0" type="line"/>
      <point x="854" y="0" type="line"/>
      <point x="657" y="397" type="line"/>
      <point x="444" y="0" type="line"/>
      <point x="12" y="0" type="line"/>
      <point x="449" y="731" type="line"/>
      <point x="37" y="1475" type="line"/>
      <point x="530" y="1475" type="line"/>
      <point x="705" y="1120" type="line"/>
      <point x="891" y="1475" type="line"/>
      <point x="1323" y="1475" type="line"/>
    </contour>
  </outline>
</glyph>
<glyph name="Z" format="1">
  <advance width="1191.936"/>
  <unicode hex="005A"/>
  <outline>
    <contour>
      <point x="1135" y="340" type="line"/>
      <point x="1135" y="0" type="line"/>
      <point x="55" y="0" type="line"/>
      <point x="55" y="299" type="line"/>
      <point x="631" y="1135" type="line"/>
      <point x="86" y="1135" type="line"/>
      <point x="86" y="1475" type="line"/>
      <point x="1135" y="1475" type="line"/>
      <point x="1135" y="1176" type="line"/>
      <point x="559" y="340" type="line"/>
    </contour>
  </outline>
</glyph>
<glyph name="backslash" format="1">
  <advance width="974.848"/>
  <unicode hex="005C"/>
  <outline>
    <contour>
      <point x="406" y="1505" type="line"/>
      <point x="1022" y="-195" type="line"/>
      <point x="631" y="-195" type="line"/>
      <point x="14" y="1505" type="line"/>
    </contour>
  </outline>
</glyph>
<glyph name="b" format="1">
  <advance width="1169.408"/>
  <unicode hex="0062"/>
  <outline>
    <contour>
      <point x="1118" y="588" type="qcurve" smooth="yes"/>
      <point x="1118" y="522" type="line" smooth="yes"/>
      <point x="1118.0" y="265.28358209"/>
      <point x="945.746268657" y="-14.0"/>
      <point x="795" y="-14" type="qcurve" smooth="yes"/>
      <point x="693.507462687" y="-14.0"/>
      <point x="564.208955224" y="86.2089552239"/>
      <point x="506" y="178" type="qcurve"/>
      <point x="498" y="178" type="line"/>
      <point x="498" y="-16" type="line"/>
      <point x="80" y="33" type="line"/>
      <point x="80" y="1495" type="line"/>
      <point x="498" y="1544" type="line"/>
      <point x="498" y="932" type="line"/>
      <point x="506" y="932" type="line"/>
      <point x="570.179104478" y="1020.80597015"/>
      <point x="703.208955224" y="1124.0"/>
      <point x="795" y="1124" type="qcurve" smooth="yes"/>
      <point x="953.955223881" y="1124.0"/>
      <point x="1118.0" y="844.71641791"/>
    </contour>
    <contour>
      <point x="602" y="248" type="qcurve" smooth="yes"/>
      <point x="651.253731343" y="248.0"/>
      <point x="709.0" y="382.104477612"/>
      <point x="709" y="553" type="qcurve" smooth="yes"/>
      <point x="709.0" y="726.880597015"/>
      <point x="651.253731343" y="862.0"/>
      <point x="602" y="862" type="qcurve" smooth="yes"/>
      <point x="553.492537313" y="862.0"/>
      <point x="498.0" y="726.880597015"/>
      <point x="498" y="553" type="qcurve" smooth="yes"/>
      <point x="498.0" y="382.104477612"/>
      <point x="553.492537313" y="248.0"/>
    </contour>
  </outline>
</glyph>
<glyph name="c" format="1">
  <advance width="1064.96"/>
  <unicode hex="0063"/>
  <outline>
    <contour>
      <point x="670" y="432" type="qcurve"/>
      <point x="1038" y="365" type="line"/>
      <point x="1001.43283582" y="162.76119403"/>
      <point x="752.492537313" y="-20.0"/>
      <point x="551" y="-20" type="qcurve" smooth="yes"/>
      <point x="317.417910448" y="-20.0"/>
      <point x="45.0" y="265.28358209"/>
      <point x="45" y="522" type="qcurve" smooth="yes"/>
      <point x="45" y="588" type="line" smooth="yes"/>
      <point x="45.0" y="844.71641791"/>
      <point x="321.955223881" y="1130.0"/>
      <point x="563" y="1130" type="qcurve" smooth="yes"/>
      <point x="769.71641791" y="1130.0"/>
      <point x="1008.3880597" y="929.47761194"/>
      <point x="1036" y="725" type="qcurve"/>
      <point x="659" y="657" type="line"/>
      <point x="653.029850746" y="768.940298507"/>
      <point x="612.731343284" y="864.0"/>
      <point x="559" y="864" type="qcurve" smooth="yes"/>
      <point x="505.268656716" y="864.0"/>
      <point x="461.0" y="742.134328358"/>
      <point x="461" y="569" type="qcurve" smooth="yes"/>
      <point x="461" y="541" type="line" smooth="yes"/>
      <point x="461.0" y="367.865671642"/>
      <point x="510.014925373" y="246.0"/>
      <point x="563" y="246" type="qcurve" smooth="yes"/>
      <point x="606.28358209" y="246.0"/>
      <point x="655.820895522" y="322.298507463"/>
    </contour>
  </outline>
</glyph>
<glyph name="e" format="1">
  <advance width="1071.104"/>
  <unicode hex="0065"/>
  <outline>
    <contour>
      <point x="954" y="344" type="qcurve"/>
      <point x="1042" y="88" type="line"/>
      <point x="912.149253731" y="29.7910447761"/>
      <point x="707.537313433" y="-14.0"/>
      <point x="565" y="-14" type="qcurve" smooth="yes"/>
      <point x="315.746268657" y="-14.0"/>
      <point x="45.0" y="271.28358209"/>
      <point x="45" y="528" type="qcurve" smooth="yes"/>
      <point x="45" y="588" type="line" smooth="yes"/>
      <point x="45.0" y="844.71641791"/>
      <point x="313.358208955" y="1130.0"/>
      <point x="535" y="1130" type="qcurve" smooth="yes"/>
      <point x="765.597014925" y="1130.0"/>
      <point x="1024.0" y="844.71641791"/>
      <point x="1024" y="588" type="qcurve" smooth="yes"/>
      <point x="1024" y="455" type="line"/>
      <point x="432" y="455" type="line"/>
      <point x="442.447761194" y="332.611940299"/>
      <point x="550.671641791" y="264.0"/>
      <point x="635" y="264" type="qcurve" smooth="yes"/>
      <point x="700.671641791" y="264.0"/>
      <point x="856.23880597" y="299.970149254"/>
    </contour>
    <contour>
      <point x="430" y="608" type="qcurve"/>
      <point x="639" y="608" type="line"/>
      <point x="637.507462687" y="781.134328358"/>
      <point x="589.47761194" y="897.0"/>
      <point x="535" y="897" type="qcurve" smooth="yes"/>
      <point x="478.28358209" y="897.0"/>
      <point x="430.0" y="776.656716418"/>
    </contour>
  </outline>
</glyph>
<glyph name="g" format="1">
  <advance width="1169.408"/>
  <unicode hex="0067"/>
  <outline>
    <contour>
      <point x="1090" y="1077" type="line"/>
      <point x="1090" y="94" type="line" smooth="yes"/>
      <point x="1090.0" y="-171.671641791"/>
      <point x="808.776119403" y="-391.0"/>
      <point x="514" y="-391" type="qcurve" smooth="yes"/>
      <point x="400.567164179" y="-391.0"/>
      <point x="226.179104478" y="-365.134328358"/>
      <point x="162" y="-342" type="qcurve"/>
      <point x="162" y="-86" type="line"/>
      <point x="233" y="-86" type="line"/>
      <point x="267.328358209" y="-131.52238806"/>
      <point x="378.701492537" y="-182.0"/>
      <point x="469" y="-182" type="qcurve" smooth="yes"/>
      <point x="568.253731343" y="-182.0"/>
      <point x="672.0" y="-82.4328358209"/>
      <point x="672" y="31" type="qcurve" smooth="yes"/>
      <point x="672" y="178" type="line"/>
      <point x="664" y="178" type="line"/>
      <point x="599.820895522" y="89.1940298507"/>
      <point x="466.791044776" y="-14.0"/>
      <point x="375" y="-14" type="qcurve" smooth="yes"/>
      <point x="216.044776119" y="-14.0"/>
      <point x="51.0" y="265.28358209"/>
      <point x="51" y="522" type="qcurve" smooth="yes"/>
      <point x="51" y="588" type="line" smooth="yes"/>
      <point x="51.0" y="844.71641791"/>
      <point x="223.507462687" y="1124.0"/>
      <point x="375" y="1124" type="qcurve" smooth="yes"/>
      <point x="475.746268657" y="1124.0"/>
      <point x="605.791044776" y="1023.79104478"/>
      <point x="664" y="932" type="qcurve"/>
      <point x="672" y="932" type="line"/>
      <point x="672" y="1126" type="line"/>
    </contour>
    <contour>
      <point x="567" y="248" type="qcurve" smooth="yes"/>
      <point x="616.253731343" y="248.0"/>
      <point x="672.0" y="383.119402985"/>
      <point x="672" y="557" type="qcurve" smooth="yes"/>
      <point x="672.0" y="727.895522388"/>
      <point x="616.253731343" y="862.0"/>
      <point x="567" y="862" type="qcurve" smooth="yes"/>
      <point x="518.492537313" y="862.0"/>
      <point x="461.0" y="727.895522388"/>
      <point x="461" y="557" type="qcurve" smooth="yes"/>
      <point x="461.0" y="383.119402985"/>
      <point x="518.492537313" y="248.0"/>
    </contour>
  </outline>
</glyph>
<glyph name="i" format="1">
  <advance width="585.728"/>
  <unicode hex="0069"/>
  <outline>
    <contour>
      <point x="502" y="1110" type="line"/>
      <point x="502" y="0" type="line"/>
      <point x="84" y="0" type="line"/>
      <point x="84" y="1110" type="line"/>
    </contour>
    <contour>
      <point x="512" y="1495" type="line"/>
      <point x="512" y="1214" type="line"/>
      <point x="74" y="1214" type="line"/>
      <point x="74" y="1495" type="line"/>
    </contour>
  </outline>
</glyph>
<glyph name="j" format="1">
  <advance width="585.728"/>
  <unicode hex="006A"/>
  <outline>
    <contour>
      <point x="502" y="1110" type="line"/>
      <point x="502" y="0" type="line" smooth="yes"/>
      <point x="502.0" y="-220.149253731"/>
      <point x="292.567164179" y="-389.0"/>
      <point x="106" y="-389" type="qcurve" smooth="yes"/>
      <point x="22.4179104478" y="-389.0"/>
      <point x="-93.2835820896" y="-371.164179104"/>
      <point x="-150" y="-354" type="qcurve"/>
      <point x="-150" y="-115" type="line"/>
      <point x="-115.671641791" y="-125.447761194"/>
      <point x="-62.1044776119" y="-135.0"/>
      <point x="-33" y="-135" type="qcurve" smooth="yes"/>
      <point x="17.7462686567" y="-135.0"/>
      <point x="84.0" y="-82.1791044776"/>
      <point x="84" y="-18" type="qcurve" smooth="yes"/>
      <point x="84" y="1110" type="line"/>
    </contour>
    <contour>
      <point x="512" y="1495" type="line"/>
      <point x="512" y="1214" type="line"/>
      <point x="74" y="1214" type="line"/>
      <point x="74" y="1495" type="line"/>
    </contour>
  </outline>
</glyph>
<glyph name="l" format="1">
  <advance width="585.728"/>
  <unicode hex="006C"/>
  <outline>
    <contour>
      <point x="502" y="1544" type="line"/>
      <point x="502" y="0" type="line"/>
      <point x="84" y="0" type="line"/>
      <point x="84" y="1495" type="line"/>
    </contour>
  </outline>
</glyph>
<glyph name="n" format="1">
  <advance width="1171.456"/>
  <unicode hex="006E"/>
  <outline>
    <contour>
      <point x="1106" y="821" type="qcurve" smooth="yes"/>
      <point x="1106" y="0" type="line"/>
      <point x="688" y="0" type="line"/>
      <point x="688" y="725" type="line" smooth="yes"/>
      <point x="688.0" y="780.223880597"/>
      <point x="645.253731343" y="836.0"/>
      <point x="596" y="836" type="qcurve" smooth="yes"/>
      <point x="571.373134328" y="836.0"/>
      <point x="523.373134328" y="822.432835821"/>
      <point x="498" y="809" type="qcurve"/>
      <point x="498" y="0" type="line"/>
      <point x="80" y="0" type="line"/>
      <point x="80" y="1077" type="line"/>
      <point x="498" y="1126" type="line"/>
      <point x="498" y="905" type="line"/>
      <point x="506" y="905" type="line"/>
      <point x="600.776119403" y="1022.91044776"/>
      <point x="760.23880597" y="1124.0"/>
      <point x="858" y="1124" type="qcurve" smooth="yes"/>
      <point x="974.417910448" y="1124.0"/>
      <point x="1106.0" y="976.970149254"/>
    </contour>
  </outline>
</glyph>
<glyph name="o" format="1">
  <advance width="1130.496"/>
  <unicode hex="006F"/>
  <outline>
    <contour>
      <point x="1085" y="588" type="qcurve" smooth="yes"/>
      <point x="1085" y="522" type="line" smooth="yes"/>
      <point x="1085.0" y="265.28358209"/>
      <point x="811.268656716" y="-20.0"/>
      <point x="565" y="-20" type="qcurve" smooth="yes"/>
      <point x="319.47761194" y="-20.0"/>
      <point x="45.0" y="265.28358209"/>
      <point x="45" y="522" type="qcurve" smooth="yes"/>
      <point x="45" y="588" type="line" smooth="yes"/>
      <point x="45.0" y="844.71641791"/>
      <point x="319.47761194" y="1130.0"/>
      <point x="565" y="1130" type="qcurve" smooth="yes"/>
      <point x="811.268656716" y="1130.0"/>
      <point x="1085.0" y="844.71641791"/>
    </contour>
    <contour>
      <point x="565" y="225" type="qcurve" smooth="yes"/>
      <point x="621.71641791" y="225.0"/>
      <point x="670.0" y="347.611940299"/>
      <point x="670" y="520" type="qcurve" smooth="yes"/>
      <point x="670" y="590" type="line" smooth="yes"/>
      <point x="670.0" y="762.388059701"/>
      <point x="621.71641791" y="885.0"/>
      <point x="565" y="885" type="qcurve" smooth="yes"/>
      <point x="508.28358209" y="885.0"/>
      <point x="461.0" y="762.388059701"/>
      <point x="461" y="590" type="qcurve" smooth="yes"/>
      <point x="461" y="520" type="line" smooth="yes"/>
      <point x="461.0" y="347.611940299"/>
      <point x="508.28358209" y="225.0"/>
    </contour>
  </outline>
</glyph>
<glyph name="r" format="1">
  <advance width="917.504"/>
  <unicode hex="0072"/>
  <outline>
    <contour>
      <point x="897" y="1128" type="qcurve"/>
      <point x="897" y="709" type="line"/>
      <point x="761.179104478" y="696.313432836"/>
      <point x="569.641791045" y="636.537313433"/>
      <point x="498" y="594" type="qcurve"/>
      <point x="498" y="0" type="line"/>
      <point x="80" y="0" type="line"/>
      <point x="80" y="1077" type="line"/>
      <point x="498" y="1126" type="line"/>
      <point x="498" y="711" type="line"/>
      <point x="506" y="711" type="line"/>
      <point x="608.23880597" y="929.656716418"/>
      <point x="793.268656716" y="1116.05970149"/>
    </contour>
  </outline>
</glyph>
<glyph name="t" format="1">
  <advance width="944.128"/>
  <unicode hex="0074"/>
  <outline>
    <contour>
      <point x="911" y="360" type="qcurve"/>
      <point x="911" y="59" type="line"/>
      <point x="819.208955224" y="17.9552238806"/>
      <point x="641.23880597" y="-20.0"/>
      <point x="539" y="-20" type="qcurve" smooth="yes"/>
      <point x="364.373134328" y="-20.0"/>
      <point x="203.0" y="134.014925373"/>
      <point x="203" y="287" type="qcurve" smooth="yes"/>
      <point x="203" y="831" type="line"/>
      <point x="18" y="831" type="line"/>
      <point x="18" y="1106" type="line"/>
      <point x="203" y="1106" type="line"/>
      <point x="203" y="1442" type="line"/>
      <point x="614" y="1491" type="line"/>
      <point x="614" y="1106" type="line"/>
      <point x="891" y="1106" type="line"/>
      <point x="891" y="831" type="line"/>
      <point x="614" y="831" type="line"/>
      <point x="614" y="387" type="line" smooth="yes"/>
      <point x="614.0" y="347.447761194"/>
      <point x="656.955223881" y="301.0"/>
      <point x="698" y="301" type="qcurve" smooth="yes"/>
      <point x="738.298507463" y="301.0"/>
      <point x="836.373134328" y="326.417910448"/>
    </contour>
  </outline>
</glyph>
<glyph name="v" format="1">
  <advance width="1187.84"/>
  <unicode hex="0076"/>
  <outline>
    <contour>
      <point x="770" y="1110" type="line"/>
      <point x="1178" y="1110" type="line"/>
      <point x="823" y="-8" type="line"/>
      <point x="365" y="-8" type="line"/>
      <point x="10" y="1110" type="line"/>
      <point x="438" y="1110" type="line"/>
      <point x="604" y="416" type="line"/>
    </contour>
  </outline>
</glyph>
<glyph name="x" format="1">
  <advance width="1175.552"/>
  <unicode hex="0078"/>
  <outline>
    <contour>
      <point x="805" y="580" type="line"/>
      <point x="1163" y="0" type="line"/>
      <point x="717" y="0" type="line"/>
      <point x="571" y="274" type="line"/>
      <point x="418" y="0" type="line"/>
      <point x="12" y="0" type="line"/>
      <point x="371" y="547" type="line"/>
      <point x="23" y="1110" type="line"/>
      <point x="469" y="1110" type="line"/>
      <point x="604" y="850" type="line"/>
      <point x="748" y="1110" type="line"/>
      <point x="1153" y="1110" type="line"/>
    </contour>
  </outline>
</glyph>
<glyph name="braceright" format="1">
  <advance width="983.04"/>
  <unicode hex="007D"/>
  <outline>
    <contour>
      <point x="965" y="731" type="qcurve"/>
      <point x="965" y="580" type="line"/>
      <point x="850.074626866" y="580.0"/>
      <point x="696.0" y="493.208955224"/>
      <point x="696" y="385" type="qcurve" smooth="yes"/>
      <point x="696.0" y="316.343283582"/>
      <point x="737.0" y="160.686567164"/>
      <point x="737" y="98" type="qcurve" smooth="yes"/>
      <point x="737.0" y="-33.3432835821"/>
      <point x="570.955223881" y="-164.0"/>
      <point x="412" y="-164" type="qcurve" smooth="yes"/>
      <point x="41" y="-164" type="line"/>
      <point x="41" y="-10" type="line"/>
      <point x="205" y="-10" type="line" smooth="yes"/>
      <point x="276.641791045" y="-10.0"/>
      <point x="350.0" y="54.8208955224"/>
      <point x="350" y="119" type="qcurve" smooth="yes"/>
      <point x="350.0" y="166.014925373"/>
      <point x="309.0" y="321.865671642"/>
      <point x="309" y="395" type="qcurve" smooth="yes"/>
      <point x="309.0" y="512.910447761"/>
      <point x="438.925373134" y="617.895522388"/>
      <point x="524" y="647" type="qcurve"/>
      <point x="524" y="664" type="line"/>
      <point x="438.925373134" y="692.358208955"/>
      <point x="309.0" y="797.835820896"/>
      <point x="309" y="915" type="qcurve" smooth="yes"/>
      <point x="309.0" y="988.880597015"/>
      <point x="350.0" y="1144.23880597"/>
      <point x="350" y="1192" type="qcurve" smooth="yes"/>
      <point x="350.0" y="1256.17910448"/>
      <point x="276.641791045" y="1321.0"/>
      <point x="205" y="1321" type="qcurve" smooth="yes"/>
      <point x="41" y="1321" type="line"/>
      <point x="41" y="1475" type="line"/>
      <point x="412" y="1475" type="line" smooth="yes"/>
      <point x="570.955223881" y="1475.0"/>
      <point x="737.0" y="1344.08955224"/>
      <point x="737" y="1212" type="qcurve" smooth="yes"/>
      <point x="737.0" y="1149.31343284"/>
      <point x="696.0" y="994.656716418"/>
      <point x="696" y="926" type="qcurve" smooth="yes"/>
      <point x="696.0" y="817.044776119"/>
      <point x="850.074626866" y="731.0"/>
    </contour>
  </outline>
</glyph>
<glyph name="cent" format="1">
  <advance width="1085.44"/>
  <unicode hex="00A2"/>
  <outline>
    <contour>
      <point x="874" y="1305" type="line"/>
      <point x="1102" y="1305" type="line"/>
      <point x="528" y="244" type="line"/>
      <point x="536.208955224" y="241.014925373"/>
      <point x="554.044776119" y="238.0"/>
      <point x="563" y="238" type="qcurve" smooth="yes"/>
      <point x="607.776119403" y="238.0"/>
      <point x="680.567164179" y="315.582089552"/>
      <point x="694" y="432" type="qcurve"/>
      <point x="1038" y="365" type="line"/>
      <point x="1001.43283582" y="162.76119403"/>
      <point x="752.492537313" y="-20.0"/>
      <point x="551" y="-20" type="qcurve" smooth="yes"/>
      <point x="509.955223881" y="-20.0"/>
      <point x="430.074626866" y="-10.9552238806"/>
      <point x="395" y="-2" type="qcurve"/>
      <point x="291" y="-195" type="line"/>
      <point x="63" y="-195" type="line"/>
      <point x="225" y="82" type="line"/>
      <point x="139.925373134" y="149.164179104"/>
      <point x="45.0" y="374.23880597"/>
      <point x="45" y="522" type="qcurve" smooth="yes"/>
      <point x="45" y="588" type="line" smooth="yes"/>
      <point x="45.0" y="844.71641791"/>
      <point x="321.955223881" y="1130.0"/>
      <point x="563" y="1130" type="qcurve" smooth="yes"/>
      <point x="622.701492537" y="1130.0"/>
      <point x="728.47761194" y="1112.41791045"/>
      <point x="774" y="1096" type="qcurve"/>
    </contour>
    <contour>
      <point x="442" y="410" type="qcurve"/>
      <point x="655" y="850" type="line"/>
      <point x="635.597014925" y="861.940298507"/>
      <point x="595.119402985" y="872.0"/>
      <point x="569" y="872" type="qcurve" smooth="yes"/>
      <point x="504.820895522" y="872.0"/>
      <point x="436.0" y="748.104477612"/>
      <point x="436" y="569" type="qcurve" smooth="yes"/>
      <point x="436" y="541" type="line" smooth="yes"/>
      <point x="436.0" y="502.194029851"/>
      <point x="439.014925373" y="436.865671642"/>
    </contour>
  </outline>
</glyph>
<glyph name="yen" format="1">
  <advance width="1351.68"/>
  <unicode hex="00A5"/>
  <outline>
    <contour>
      <point x="926" y="1475" type="line"/>
      <point x="1346" y="1475" type="line"/>
      <point x="1024" y="860" type="line"/>
      <point x="1257" y="860" type="line"/>
      <point x="1257" y="666" type="line"/>
      <point x="922" y="666" type="line"/>
      <point x="883" y="590" type="line"/>
      <point x="883" y="459" type="line"/>
      <point x="1257" y="459" type="line"/>
      <point x="1257" y="264" type="line"/>
      <point x="883" y="264" type="line"/>
      <point x="883" y="0" type="line"/>
      <point x="469" y="0" type="line"/>
      <point x="469" y="264" type="line"/>
      <point x="94" y="264" type="line"/>
      <point x="94" y="459" type="line"/>
      <point x="469" y="459" type="line"/>
      <point x="469" y="582" type="line"/>
      <point x="426" y="666" type="line"/>
      <point x="94" y="666" type="line"/>
      <point x="94" y="860" type="line"/>
      <point x="326" y="860" type="line"/>
      <point x="6" y="1475" type="line"/>
      <point x="467" y="1475" type="line"/>
      <point x="696" y="932" type="line"/>
    </contour>
  </outline>
</glyph>
<glyph name="section" format="1">
  <advance width="1265.664"/>
  <unicode hex="00A7"/>
  <outline>
    <contour>
      <point x="760" y="1077" type="qcurve" smooth="yes"/>
      <point x="1034.62686567" y="1011.32835821"/>
      <point x="1229.0" y="869.253731343"/>
      <point x="1229" y="770" type="qcurve" smooth="yes"/>
      <point x="1229.0" y="669.253731343"/>
      <point x="1060.52238806" y="548.656716418"/>
      <point x="915" y="530" type="qcurve"/>
      <point x="915" y="518" type="line"/>
      <point x="1003.80597015" y="482.925373134"/>
      <point x="1114.0" y="356.268656716"/>
      <point x="1114" y="260" type="qcurve" smooth="yes"/>
      <point x="1114.0" y="136.119402985"/>
      <point x="900.597014925" y="-25.0"/>
      <point x="670" y="-25" type="qcurve" smooth="yes"/>
      <point x="502.835820896" y="-25.0"/>
      <point x="247.865671642" y="40.1044776119"/>
      <point x="121" y="111" type="qcurve"/>
      <point x="260" y="342" type="line"/>
      <point x="373.432835821" y="282.298507463"/>
      <point x="591.223880597" y="227.0"/>
      <point x="686" y="227" type="qcurve" smooth="yes"/>
      <point x="739.731343284" y="227.0"/>
      <point x="786.0" y="252.119402985"/>
      <point x="786" y="276" type="qcurve" smooth="yes"/>
      <point x="786.0" y="306.597014925"/>
      <point x="695.552238806" y="352.970149254"/>
      <point x="506" y="397" type="qcurve" smooth="yes"/>
      <point x="230.626865672" y="462.671641791"/>
      <point x="37.0" y="605.0"/>
      <point x="37" y="705" type="qcurve" smooth="yes"/>
      <point x="37.0" y="805.746268657"/>
      <point x="205.223880597" y="926.089552239"/>
      <point x="350" y="944" type="qcurve"/>
      <point x="350" y="956" type="line"/>
      <point x="261.194029851" y="991.820895522"/>
      <point x="152.0" y="1117.73134328"/>
      <point x="152" y="1214" type="qcurve" smooth="yes"/>
      <point x="152.0" y="1337.88059701"/>
      <point x="365.402985075" y="1499.0"/>
      <point x="596" y="1499" type="qcurve" smooth="yes"/>
      <point x="762.417910448" y="1499.0"/>
      <point x="1018.13432836" y="1434.14925373"/>
      <point x="1145" y="1364" type="qcurve"/>
      <point x="1006" y="1133" type="line"/>
      <point x="892.567164179" y="1191.95522388"/>
      <point x="674.776119403" y="1247.0"/>
      <point x="580" y="1247" type="qcurve" smooth="yes"/>
      <point x="526.268656716" y="1247.0"/>
      <point x="479.0" y="1222.62686567"/>
      <point x="479" y="1198" type="qcurve" smooth="yes"/>
      <point x="479.0" y="1167.40298507"/>
      <point x="570.447761194" y="1121.7761194"/>
    </contour>
    <contour>
      <point x="758" y="608" type="qcurve" smooth="yes"/>
      <point x="843.074626866" y="608.0"/>
      <point x="940.0" y="654.985074627"/>
      <point x="940" y="702" type="qcurve" smooth="yes"/>
      <point x="940.0" y="746.776119403"/>
      <point x="833.179104478" y="805.402985075"/>
      <point x="719" y="836" type="qcurve" smooth="yes"/>
      <point x="666.76119403" y="849.432835821"/>
      <point x="558.0" y="866.0"/>
      <point x="508" y="866" type="qcurve" smooth="yes"/>
      <point x="422.179104478" y="866.0"/>
      <point x="326.0" y="819.76119403"/>
      <point x="326" y="772" type="qcurve" smooth="yes"/>
      <point x="326.0" y="727.970149254"/>
      <point x="432.074626866" y="669.597014925"/>
      <point x="547" y="639" type="qcurve" smooth="yes"/>
      <point x="598.492537313" y="625.567164179"/>
      <point x="707.253731343" y="608.0"/>
    </contour>
  </outline>
</glyph>
<glyph name="dieresis" format="1">
  <advance width="1024.0"/>
  <unicode hex="00A8"/>
  <outline>
    <contour>
      <point x="444" y="1522" type="line"/>
      <point x="444" y="1212" type="line"/>
      <point x="139" y="1212" type="line"/>
      <point x="139" y="1522" type="line"/>
    </contour>
    <contour>
      <point x="885" y="1522" type="line"/>
      <point x="885" y="1212" type="line"/>
      <point x="580" y="1212" type="line"/>
      <point x="580" y="1522" type="line"/>
    </contour>
  </outline>
</glyph>
<glyph name="copyright" format="1">
  <advance width="1658.88"/>
  <unicode hex="00A9"/>
  <outline>
    <contour>
      <point x="936" y="649" type="qcurve"/>
      <point x="1180" y="594" type="line"/>
      <point x="1156.86567164" y="444.0"/>
      <point x="980.492537313" y="289.0"/>
      <point x="829" y="289" type="qcurve" smooth="yes"/>
      <point x="668.552238806" y="289.0"/>
      <point x="463.0" y="498.28358209"/>
      <point x="463" y="705" type="qcurve" smooth="yes"/>
      <point x="463" y="791" type="line" smooth="yes"/>
      <point x="463.0" y="996.970149254"/>
      <point x="668.552238806" y="1204.0"/>
      <point x="829" y="1204" type="qcurve" smooth="yes"/>
      <point x="1003.62686567" y="1204.0"/>
      <point x="1159.34328358" y="1026.34328358"/>
      <point x="1178" y="895" type="qcurve"/>
      <point x="924" y="838" type="line"/>
      <point x="914.298507463" y="927.552238806"/>
      <point x="873.776119403" y="1006.0"/>
      <point x="829" y="1006" type="qcurve" smooth="yes"/>
      <point x="779.0" y="1006.0"/>
      <point x="739.0" y="909.328358209"/>
      <point x="739" y="825" type="qcurve" smooth="yes"/>
      <point x="739" y="668" type="line" smooth="yes"/>
      <point x="739.0" y="585.164179104"/>
      <point x="779.507462687" y="489.0"/>
      <point x="831" y="489" type="qcurve" smooth="yes"/>
      <point x="877.268656716" y="489.0"/>
      <point x="922.567164179" y="560.194029851"/>
    </contour>
    <contour>
      <point x="831" y="1499" type="qcurve" smooth="yes"/>
      <point x="1158.6119403" y="1499.0"/>
      <point x="1591.0" y="1066.6119403"/>
      <point x="1591" y="739" type="qcurve" smooth="yes"/>
      <point x="1591.0" y="412.134328358"/>
      <point x="1154.6119403" y="-25.0"/>
      <point x="827" y="-25" type="qcurve" smooth="yes"/>
      <point x="500.134328358" y="-25.0"/>
      <point x="68.0" y="408.134328358"/>
      <point x="68" y="735" type="qcurve" smooth="yes"/>
      <point x="68.0" y="1062.6119403"/>
      <point x="504.134328358" y="1499.0"/>
    </contour>
    <contour>
      <point x="831" y="61" type="qcurve" smooth="yes"/>
      <point x="1125.02985075" y="61.0"/>
      <point x="1491.0" y="441.71641791"/>
      <point x="1491" y="735" type="qcurve" smooth="yes"/>
      <point x="1491.0" y="1028.28358209"/>
      <point x="1121.02985075" y="1413.0"/>
      <point x="827" y="1413" type="qcurve" smooth="yes"/>
      <point x="533.71641791" y="1413.0"/>
      <point x="168.0" y="1033.02985075"/>
      <point x="168" y="739" type="qcurve" smooth="yes"/>
      <point x="168.0" y="445.71641791"/>
      <point x="537.71641791" y="61.0"/>
    </contour>
  </outline>
</glyph>
<glyph name="guillemotleft" format="1">
  <advance width="1105.92"/>
  <unicode hex="00AB"/>
  <outline>
    <contour>
      <point x="434" y="555" type="line"/>
      <point x="571" y="133" type="line"/>
      <point x="358" y="133" type="line"/>
      <point x="20" y="555" type="line"/>
      <point x="358" y="977" type="line"/>
      <point x="571" y="977" type="line"/>
    </contour>
    <contour>
      <point x="918" y="555" type="line"/>
      <point x="1055" y="133" type="line"/>
      <point x="842" y="133" type="line"/>
      <point x="504" y="555" type="line"/>
      <point x="842" y="977" type="line"/>
      <point x="1055" y="977" type="line"/>
    </contour>
  </outline>
</glyph>
<glyph name="uni00AE" format="1">
  <advance width="1658.88"/>
  <unicode hex="00AE"/>
  <outline>
    <contour>
      <point x="1044" y="686" type="qcurve"/>
      <point x="1237" y="313" type="line"/>
      <point x="954" y="313" type="line"/>
      <point x="795" y="645" type="line"/>
      <point x="772" y="645" type="line"/>
      <point x="772" y="313" type="line"/>
      <point x="506" y="313" type="line"/>
      <point x="506" y="1198" type="line"/>
      <point x="856" y="1198" type="line" smooth="yes"/>
      <point x="1007.49253731" y="1198.0"/>
      <point x="1190.0" y="1064.29850746"/>
      <point x="1190" y="924" type="qcurve" smooth="yes"/>
      <point x="1190.0" y="841.164179104"/>
      <point x="1114.89552239" y="719.582089552"/>
    </contour>
    <contour>
      <point x="831" y="1499" type="qcurve" smooth="yes"/>
      <point x="1158.6119403" y="1499.0"/>
      <point x="1591.0" y="1066.6119403"/>
      <point x="1591" y="739" type="qcurve" smooth="yes"/>
      <point x="1591.0" y="412.134328358"/>
      <point x="1154.6119403" y="-25.0"/>
      <point x="827" y="-25" type="qcurve" smooth="yes"/>
      <point x="500.134328358" y="-25.0"/>
      <point x="68.0" y="408.134328358"/>
      <point x="68" y="735" type="qcurve" smooth="yes"/>
      <point x="68.0" y="1062.6119403"/>
      <point x="504.134328358" y="1499.0"/>
    </contour>
    <contour>
      <point x="831" y="61" type="qcurve" smooth="yes"/>
      <point x="1125.02985075" y="61.0"/>
      <point x="1491.0" y="441.71641791"/>
      <point x="1491" y="735" type="qcurve" smooth="yes"/>
      <point x="1491.0" y="1028.28358209"/>
      <point x="1121.02985075" y="1413.0"/>
      <point x="827" y="1413" type="qcurve" smooth="yes"/>
      <point x="533.71641791" y="1413.0"/>
      <point x="168.0" y="1033.02985075"/>
      <point x="168" y="739" type="qcurve" smooth="yes"/>
      <point x="168.0" y="445.71641791"/>
      <point x="537.71641791" y="61.0"/>
    </contour>
    <contour>
      <point x="821" y="817" type="line" smooth="yes"/>
      <point x="873.23880597" y="817.0"/>
      <point x="926.0" y="872.746268657"/>
      <point x="926" y="922" type="qcurve" smooth="yes"/>
      <point x="926.0" y="967.52238806"/>
      <point x="871.746268657" y="1014.0"/>
      <point x="821" y="1014" type="qcurve" smooth="yes"/>
      <point x="760" y="1014" type="line"/>
      <point x="760" y="817" type="line"/>
    </contour>
  </outline>
</glyph>
<glyph name="degree" format="1">
  <advance width="819.2"/>
  <unicode hex="00B0"/>
  <outline>
    <contour>
      <point x="410" y="1483" type="qcurve" smooth="yes"/>
      <point x="554.776119403" y="1483.0"/>
      <point x="748.0" y="1293.7761194"/>
      <point x="748" y="1149" type="qcurve" smooth="yes"/>
      <point x="748.0" y="1003.47761194"/>
      <point x="554.776119403" y="815.0"/>
      <point x="410" y="815" type="qcurve" smooth="yes"/>
      <point x="264.47761194" y="815.0"/>
      <point x="72.0" y="1003.47761194"/>
      <point x="72" y="1149" type="qcurve" smooth="yes"/>
      <point x="72.0" y="1293.7761194"/>
      <point x="264.47761194" y="1483.0"/>
    </contour>
    <contour>
      <point x="410" y="979" type="qcurve" smooth="yes"/>
      <point x="480.149253731" y="979.0"/>
      <point x="561.0" y="1077.35820896"/>
      <point x="561" y="1149" type="qcurve" smooth="yes"/>
      <point x="561.0" y="1220.64179104"/>
      <point x="480.149253731" y="1319.0"/>
      <point x="410" y="1319" type="qcurve" smooth="yes"/>
      <point x="339.104477612" y="1319.0"/>
      <point x="258.0" y="1220.64179104"/>
      <point x="258" y="1149" type="qcurve" smooth="yes"/>
      <point x="258.0" y="1077.35820896"/>
      <point x="339.104477612" y="979.0"/>
    </contour>
  </outline>
</glyph>
<glyph name="paragraph" format="1">
  <advance width="1167.36"/>
  <unicode hex="00B6"/>
  <outline>
    <contour>
      <point x="1057" y="1475" type="line"/>
      <point x="1057" y="0" type="line"/>
      <point x="901" y="0" type="line"/>
      <point x="901" y="1329" type="line"/>
      <point x="739" y="1329" type="line"/>
      <point x="739" y="0" type="line"/>
      <point x="584" y="0" type="line"/>
      <point x="584" y="567" type="line"/>
      <point x="320.567164179" y="571.47761194"/>
      <point x="37.0" y="812.776119403"/>
      <point x="37" y="1018" type="qcurve" smooth="yes"/>
      <point x="37.0" y="1238.14925373"/>
      <point x="336.776119403" y="1475.0"/>
      <point x="592" y="1475" type="qcurve" smooth="yes"/>
    </contour>
  </outline>
</glyph>
<glyph name="periodcentered" format="1">
  <advance width="548.864"/>
  <unicode hex="00B7"/>
  <outline>
    <contour>
      <point x="274" y="795" type="qcurve" smooth="yes"/>
      <point x="370.268656716" y="795.0"/>
      <point x="500.0" y="665.268656716"/>
      <point x="500" y="569" type="qcurve" smooth="yes"/>
      <point x="500.0" y="472.731343284"/>
      <point x="370.268656716" y="344.0"/>
      <point x="274" y="344" type="qcurve" smooth="yes"/>
      <point x="177.731343284" y="344.0"/>
      <point x="49.0" y="472.731343284"/>
      <point x="49" y="569" type="qcurve" smooth="yes"/>
      <point x="49.0" y="665.268656716"/>
      <point x="177.731343284" y="795.0"/>
    </contour>
  </outline>
</glyph>
<glyph name="guillemotright" format="1">
  <advance width="1105.92"/>
  <unicode hex="00BB"/>
  <outline>
    <contour>
      <point x="264" y="977" type="line"/>
      <point x="602" y="555" type="line"/>
      <point x="264" y="133" type="line"/>
      <point x="51" y="133" type="line"/>
      <point x="188" y="555" type="line"/>
      <point x="51" y="977" type="line"/>
    </contour>
    <contour>
      <point x="748" y="977" type="line"/>
      <point x="1085" y="555" type="line"/>
      <point x="748" y="133" type="line"/>
      <point x="535" y="133" type="line"/>
      <point x="672" y="555" type="line"/>
      <point x="535" y="977" type="line"/>
    </contour>
  </outline>
</glyph>
<glyph name="questiondown" format="1">
  <advance width="1089.536"/>
  <unicode hex="00BF"/>
  <outline>
    <contour>
      <point x="762" y="518" type="qcurve"/>
      <point x="1077" y="373" type="line"/>
      <point x="1000.88059701" y="180.462686567"/>
      <point x="759.149253731" y="-25.0"/>
      <point x="539" y="-25" type="qcurve" smooth="yes"/>
      <point x="297.208955224" y="-25.0"/>
      <point x="41.0" y="198.432835821"/>
      <point x="41" y="385" type="qcurve" smooth="yes"/>
      <point x="41.0" y="532.014925373"/>
      <point x="163.626865672" y="703.850746269"/>
      <point x="289" y="774" type="qcurve" smooth="yes"/>
      <point x="376.313432836" y="824.746268657"/>
      <point x="463.059701493" y="906.0"/>
      <point x="475" y="956" type="qcurve"/>
      <point x="733" y="956" type="line"/>
      <point x="753.149253731" y="820.179104478"/>
      <point x="675.47761194" y="671.611940299"/>
      <point x="571" y="594" type="qcurve" smooth="yes"/>
      <point x="509.805970149" y="547.731343284"/>
      <point x="457.0" y="456.731343284"/>
      <point x="457" y="403" type="qcurve" smooth="yes"/>
      <point x="457.0" y="353.0"/>
      <point x="506.253731343" y="293.0"/>
      <point x="557" y="293" type="qcurve" smooth="yes"/>
      <point x="607.746268657" y="293.0"/>
      <point x="702.298507463" y="383.671641791"/>
    </contour>
    <contour>
      <point x="606" y="1489" type="qcurve" smooth="yes"/>
      <point x="697.791044776" y="1489.0"/>
      <point x="821.0" y="1365.79104478"/>
      <point x="821" y="1274" type="qcurve" smooth="yes"/>
      <point x="821.0" y="1182.20895522"/>
      <point x="697.791044776" y="1059.0"/>
      <point x="606" y="1059" type="qcurve" smooth="yes"/>
      <point x="514.208955224" y="1059.0"/>
      <point x="391.0" y="1182.20895522"/>
      <point x="391" y="1274" type="qcurve" smooth="yes"/>
      <point x="391.0" y="1365.79104478"/>
      <point x="514.208955224" y="1489.0"/>
    </contour>
  </outline>
</glyph>
<glyph name="Thorn" format="1">
  <advance width="1239.04"/>
  <unicode hex="00DE"/>
  <outline>
    <contour>
      <point x="647" y="1233" type="line" smooth="yes"/>
      <point x="903.71641791" y="1233.0"/>
      <point x="1217.0" y="1010.32835821"/>
      <point x="1217" y="776" type="qcurve" smooth="yes"/>
      <point x="1217.0" y="526.746268657"/>
      <point x="906.104477612" y="283.0"/>
      <point x="627" y="283" type="qcurve" smooth="yes"/>
      <point x="528" y="283" type="line"/>
      <point x="528" y="0" type="line"/>
      <point x="86" y="0" type="line"/>
      <point x="86" y="1475" type="line"/>
      <point x="528" y="1475" type="line"/>
      <point x="528" y="1233" type="line"/>
    </contour>
    <contour>
      <point x="600" y="598" type="line" smooth="yes"/>
      <point x="687.313432836" y="598.0"/>
      <point x="776.0" y="690.895522388"/>
      <point x="776" y="770" type="qcurve" smooth="yes"/>
      <point x="776.0" y="847.611940299"/>
      <point x="684.328358209" y="926.0"/>
      <point x="600" y="926" type="qcurve" smooth="yes"/>
      <point x="510" y="926" type="line"/>
      <point x="510" y="598" type="line"/>
    </contour>
  </outline>
</glyph>
<glyph name="germandbls" format="1">
  <advance width="1296.384"/>
  <unicode hex="00DF"/>
  <outline>
    <contour>
      <point x="948" y="842" type="line"/>
      <point x="1074.86567164" y="789.76119403"/>
      <point x="1255.0" y="587.373134328"/>
      <point x="1255" y="412" type="qcurve" smooth="yes"/>
      <point x="1255.0" y="194.835820896"/>
      <point x="1019.65671642" y="-10.0"/>
      <point x="801" y="-10" type="qcurve" smooth="yes"/>
      <point x="724.134328358" y="-10.0"/>
      <point x="631.044776119" y="-0.955223880597"/>
      <point x="590" y="8" type="qcurve"/>
      <point x="614" y="272" type="line"/>
      <point x="638.626865672" y="267.52238806"/>
      <point x="684.880597015" y="262.0"/>
      <point x="711" y="262" type="qcurve" smooth="yes"/>
      <point x="770.701492537" y="262.0"/>
      <point x="846.0" y="344.626865672"/>
      <point x="846" y="420" type="qcurve" smooth="yes"/>
      <point x="846.0" y="528.208955224"/>
      <point x="717.910447761" y="674.940298507"/>
      <point x="600" y="713" type="qcurve"/>
      <point x="600" y="961" type="line"/>
      <point x="682.835820896" y="977.417910448"/>
      <point x="754.0" y="1071.86567164"/>
      <point x="754" y="1145" type="qcurve" smooth="yes"/>
      <point x="754.0" y="1207.68656716"/>
      <point x="690.164179104" y="1286.0"/>
      <point x="623" y="1286" type="qcurve" smooth="yes"/>
      <point x="550.611940299" y="1286.0"/>
      <point x="498.0" y="1182.56716418"/>
      <point x="498" y="1096" type="qcurve" smooth="yes"/>
      <point x="498" y="0" type="line"/>
      <point x="80" y="0" type="line"/>
      <point x="80" y="1049" type="line" smooth="yes"/>
      <point x="80.0" y="1310.19402985"/>
      <point x="384.253731343" y="1554.0"/>
      <point x="635" y="1554" type="qcurve" smooth="yes"/>
      <point x="893.208955224" y="1554.0"/>
      <point x="1155.0" y="1343.40298507"/>
      <point x="1155" y="1174" type="qcurve" smooth="yes"/>
      <point x="1155.0" y="1028.47761194"/>
      <point x="1033.82089552" y="890.567164179"/>
      <point x="948" y="854" type="qcurve"/>
    </contour>
  </outline>
</glyph>
<glyph name="ae" format="1">
  <advance width="1654.784"/>
  <unicode hex="00E6"/>
  <outline>
    <contour>
      <point x="1538" y="344" type="qcurve"/>
      <point x="1626" y="88" type="line"/>
      <point x="1496.14925373" y="29.7910447761"/>
      <point x="1290.79104478" y="-14.0"/>
      <point x="1149" y="-14" type="qcurve" smooth="yes"/>
      <point x="1016.1641791" y="-14.0"/>
      <point x="813.671641791" y="73.1343283582"/>
      <point x="748" y="150" type="qcurve"/>
      <point x="665.164179104" y="80.5970149254"/>
      <point x="484.164179104" y="-10.0"/>
      <point x="367" y="-10" type="qcurve" smooth="yes"/>
      <point x="212.52238806" y="-10.0"/>
      <point x="33.0" y="142.462686567"/>
      <point x="33" y="285" type="qcurve" smooth="yes"/>
      <point x="33.0" y="452.910447761"/>
      <point x="317.059701493" y="637.597014925"/>
      <point x="629" y="657" type="qcurve"/>
      <point x="629" y="741" type="line" smooth="yes"/>
      <point x="629.0" y="788.76119403"/>
      <point x="568.71641791" y="846.0"/>
      <point x="512" y="846" type="qcurve" smooth="yes"/>
      <point x="456.776119403" y="846.0"/>
      <point x="303.432835821" y="801.208955224"/>
      <point x="190" y="743" type="qcurve"/>
      <point x="84" y="983" type="line"/>
      <point x="213.850746269" y="1050.1641791"/>
      <point x="432.104477612" y="1122.0"/>
      <point x="553" y="1122" type="qcurve" smooth="yes"/>
      <point x="673.895522388" y="1122.0"/>
      <point x="807.402985075" y="1057.68656716"/>
      <point x="838" y="995" type="qcurve"/>
      <point x="852" y="995" type="line"/>
      <point x="896.029850746" y="1060.67164179"/>
      <point x="1038.25373134" y="1130.0"/>
      <point x="1139" y="1130" type="qcurve" smooth="yes"/>
      <point x="1363.62686567" y="1130.0"/>
      <point x="1608.0" y="844.71641791"/>
      <point x="1608" y="588" type="qcurve" smooth="yes"/>
      <point x="1608" y="455" type="line"/>
      <point x="1016" y="455" type="line"/>
      <point x="1026.44776119" y="332.611940299"/>
      <point x="1134.67164179" y="264.0"/>
      <point x="1219" y="264" type="qcurve" smooth="yes"/>
      <point x="1284.67164179" y="264.0"/>
      <point x="1440.23880597" y="299.970149254"/>
    </contour>
    <contour>
      <point x="539" y="225" type="qcurve" smooth="yes"/>
      <point x="569.597014925" y="225.0"/>
      <point x="639.940298507" y="243.074626866"/>
      <point x="678" y="258" type="qcurve"/>
      <point x="653.373134328" y="311.731343284"/>
      <point x="629.0" y="435.343283582"/>
      <point x="629" y="504" type="qcurve" smooth="yes"/>
      <point x="629" y="516" type="line"/>
      <point x="499.149253731" y="495.850746269"/>
      <point x="408.0" y="410.179104478"/>
      <point x="408" y="346" type="qcurve" smooth="yes"/>
      <point x="408.0" y="284.805970149"/>
      <point x="473.328358209" y="225.0"/>
    </contour>
    <contour>
      <point x="1014" y="608" type="qcurve"/>
      <point x="1223" y="608" type="line"/>
      <point x="1221.50746269" y="781.134328358"/>
      <point x="1173.2238806" y="897.0"/>
      <point x="1118" y="897" type="qcurve" smooth="yes"/>
      <point x="1061.28358209" y="897.0"/>
      <point x="1014.0" y="776.656716418"/>
    </contour>
  </outline>
</glyph>
<glyph name="ccedilla" format="1">
  <advance width="1064.96"/>
  <unicode hex="00E7"/>
  <outline>
    <contour>
      <point x="670" y="432" type="qcurve"/>
      <point x="1038" y="365" type="line"/>
      <point x="1002.92537313" y="175.447761194"/>
      <point x="780.597014925" y="-9.0447761194"/>
      <point x="600" y="-18" type="qcurve"/>
      <point x="545" y="-84" type="line"/>
      <point x="559.925373134" y="-82.5074626866"/>
      <point x="617.895522388" y="-78.0"/>
      <point x="647" y="-78" type="qcurve" smooth="yes"/>
      <point x="731.328358209" y="-78.0"/>
      <point x="840.0" y="-135.298507463"/>
      <point x="840" y="-195" type="qcurve" smooth="yes"/>
      <point x="840.0" y="-298.731343284"/>
      <point x="570.835820896" y="-396.970149254"/>
      <point x="238" y="-391" type="qcurve"/>
      <point x="238" y="-319" type="line"/>
      <point x="452.925373134" y="-319.0"/>
      <point x="612.0" y="-279.582089552"/>
      <point x="612" y="-246" type="qcurve" smooth="yes"/>
      <point x="612.0" y="-227.343283582"/>
      <point x="580.074626866" y="-209.0"/>
      <point x="545" y="-209" type="qcurve" smooth="yes"/>
      <point x="518.880597015" y="-209.0"/>
      <point x="461.104477612" y="-220.044776119"/>
      <point x="432" y="-229" type="qcurve"/>
      <point x="352" y="-180" type="line"/>
      <point x="489" y="-18" type="line"/>
      <point x="283.029850746" y="-0.089552238806"/>
      <point x="45.0" y="282.447761194"/>
      <point x="45" y="522" type="qcurve" smooth="yes"/>
      <point x="45" y="588" type="line" smooth="yes"/>
      <point x="45.0" y="844.71641791"/>
      <point x="321.955223881" y="1130.0"/>
      <point x="563" y="1130" type="qcurve" smooth="yes"/>
      <point x="769.71641791" y="1130.0"/>
      <point x="1008.3880597" y="929.47761194"/>
      <point x="1036" y="725" type="qcurve"/>
      <point x="659" y="657" type="line"/>
      <point x="653.029850746" y="768.940298507"/>
      <point x="612.731343284" y="864.0"/>
      <point x="559" y="864" type="qcurve" smooth="yes"/>
      <point x="505.268656716" y="864.0"/>
      <point x="461.0" y="742.134328358"/>
      <point x="461" y="569" type="qcurve" smooth="yes"/>
      <point x="461" y="541" type="line" smooth="yes"/>
      <point x="461.0" y="367.865671642"/>
      <point x="510.014925373" y="246.0"/>
      <point x="563" y="246" type="qcurve" smooth="yes"/>
      <point x="606.28358209" y="246.0"/>
      <point x="655.820895522" y="322.298507463"/>
    </contour>
  </outline>
</glyph>
<glyph name="eth" format="1">
  <advance width="1134.592"/>
  <unicode hex="00F0"/>
  <outline>
    <contour>
      <point x="1085" y="655" type="qcurve" smooth="yes"/>
      <point x="1085" y="522" type="line" smooth="yes"/>
      <point x="1085.0" y="265.28358209"/>
      <point x="811.268656716" y="-20.0"/>
      <point x="565" y="-20" type="qcurve" smooth="yes"/>
      <point x="319.47761194" y="-20.0"/>
      <point x="45.0" y="265.28358209"/>
      <point x="45" y="522" type="qcurve" smooth="yes"/>
      <point x="45" y="588" type="line" smooth="yes"/>
      <point x="45.0" y="844.71641791"/>
      <point x="257.671641791" y="1110.0"/>
      <point x="442" y="1110" type="qcurve" smooth="yes"/>
      <point x="539.76119403" y="1110.0"/>
      <point x="659.776119403" y="1034.64179104"/>
      <point x="715" y="963" type="qcurve"/>
      <point x="723" y="963" type="line"/>
      <point x="707.328358209" y="1034.64179104"/>
      <point x="610.641791045" y="1192.62686567"/>
      <point x="539" y="1268" type="qcurve"/>
      <point x="281" y="1178" type="line"/>
      <point x="281" y="1307" type="line"/>
      <point x="436" y="1362" type="line"/>
      <point x="400.925373134" y="1389.6119403"/>
      <point x="324.044776119" y="1441.6119403"/>
      <point x="283" y="1464" type="qcurve"/>
      <point x="614" y="1561" type="line"/>
      <point x="643.104477612" y="1537.86567164"/>
      <point x="700.880597015" y="1488.11940299"/>
      <point x="727" y="1462" type="qcurve"/>
      <point x="1008" y="1561" type="line"/>
      <point x="1008" y="1432" type="line"/>
      <point x="821" y="1366" type="line"/>
      <point x="943.388059701" y="1224.20895522"/>
      <point x="1085.0" y="869.179104478"/>
    </contour>
    <contour>
      <point x="565" y="225" type="qcurve" smooth="yes"/>
      <point x="621.71641791" y="225.0"/>
      <point x="670.0" y="347.611940299"/>
      <point x="670" y="520" type="qcurve" smooth="yes"/>
      <point x="670" y="590" type="line" smooth="yes"/>
      <point x="670.0" y="762.388059701"/>
      <point x="621.71641791" y="885.0"/>
      <point x="565" y="885" type="qcurve" smooth="yes"/>
      <point x="508.28358209" y="885.0"/>
      <point x="461.0" y="762.388059701"/>
      <point x="461" y="590" type="qcurve" smooth="yes"/>
      <point x="461" y="520" type="line" smooth="yes"/>
      <point x="461.0" y="347.611940299"/>
      <point x="508.28358209" y="225.0"/>
    </contour>
  </outline>
</glyph>
<glyph name="divide" format="1">
  <advance width="1228.8"/>
  <unicode hex="00F7"/>
  <outline>
    <contour>
      <point x="614" y="438" type="qcurve" smooth="yes"/>
      <point x="705.791044776" y="438.0"/>
      <point x="829.0" y="314.791044776"/>
      <point x="829" y="223" type="qcurve" smooth="yes"/>
      <point x="829.0" y="131.208955224"/>
      <point x="705.791044776" y="8.0"/>
      <point x="614" y="8" type="qcurve" smooth="yes"/>
      <point x="522.955223881" y="8.0"/>
      <point x="399.0" y="131.208955224"/>
      <point x="399" y="223" type="qcurve" smooth="yes"/>
      <point x="399.0" y="314.791044776"/>
      <point x="522.955223881" y="438.0"/>
    </contour>
    <contour>
      <point x="614" y="1446" type="qcurve" smooth="yes"/>
      <point x="705.791044776" y="1446.0"/>
      <point x="829.0" y="1322.79104478"/>
      <point x="829" y="1231" type="qcurve" smooth="yes"/>
      <point x="829.0" y="1139.20895522"/>
      <point x="705.791044776" y="1016.0"/>
      <point x="614" y="1016" type="qcurve" smooth="yes"/>
      <point x="522.955223881" y="1016.0"/>
      <point x="399.0" y="1139.20895522"/>
      <point x="399" y="1231" type="qcurve" smooth="yes"/>
      <point x="399.0" y="1322.79104478"/>
      <point x="522.955223881" y="1446.0"/>
    </contour>
    <contour>
      <point x="1161" y="893" type="line"/>
      <point x="1161" y="561" type="line"/>
      <point x="68" y="561" type="line"/>
      <point x="68" y="893" type="line"/>
    </contour>
  </outline>
</glyph>
<glyph name="Lslash" format="1">
  <advance width="1187.84"/>
  <unicode hex="0141"/>
  <outline>
    <contour>
      <point x="1151" y="369" type="line"/>
      <point x="1151" y="0" type="line"/>
      <point x="168" y="0" type="line"/>
      <point x="168" y="541" type="line"/>
      <point x="31" y="483" type="line"/>
      <point x="31" y="823" type="line"/>
      <point x="168" y="881" type="line"/>
      <point x="168" y="1475" type="line"/>
      <point x="598" y="1475" type="line"/>
      <point x="598" y="1040" type="line"/>
      <point x="842" y="1141" type="line"/>
      <point x="842" y="801" type="line"/>
      <point x="598" y="700" type="line"/>
      <point x="598" y="369" type="line"/>
    </contour>
  </outline>
</glyph>
<glyph name="oe" format="1">
  <advance width="1708.032"/>
  <unicode hex="0153"/>
  <outline>
    <contour>
      <point x="1591" y="344" type="qcurve"/>
      <point x="1679" y="88" type="line"/>
      <point x="1549.14925373" y="29.7910447761"/>
      <point x="1365.3880597" y="-14.0"/>
      <point x="1243" y="-14" type="qcurve" smooth="yes"/>
      <point x="1091.50746269" y="-14.0"/>
      <point x="941.0" y="61.3582089552"/>
      <point x="891" y="133" type="qcurve"/>
      <point x="874" y="133" type="line"/>
      <point x="838.925373134" y="74.7910447761"/>
      <point x="677.835820896" y="-20.0"/>
      <point x="545" y="-20" type="qcurve" smooth="yes"/>
      <point x="314.402985075" y="-20.0"/>
      <point x="45.0" y="265.28358209"/>
      <point x="45" y="522" type="qcurve" smooth="yes"/>
      <point x="45" y="588" type="line" smooth="yes"/>
      <point x="45.0" y="844.71641791"/>
      <point x="313.358208955" y="1130.0"/>
      <point x="535" y="1130" type="qcurve" smooth="yes"/>
      <point x="656.641791045" y="1130.0"/>
      <point x="829.970149254" y="1051.62686567"/>
      <point x="874" y="977" type="qcurve"/>
      <point x="891" y="977" type="line"/>
      <point x="933.537313433" y="1051.62686567"/>
      <point x="1093.79104478" y="1130.0"/>
      <point x="1202" y="1130" type="qcurve" smooth="yes"/>
      <point x="1410.20895522" y="1130.0"/>
      <point x="1661.0" y="844.71641791"/>
      <point x="1661" y="588" type="qcurve" smooth="yes"/>
      <point x="1661" y="455" type="line"/>
      <point x="1069" y="455" type="line"/>
      <point x="1079.44776119" y="332.611940299"/>
      <point x="1187.67164179" y="264.0"/>
      <point x="1272" y="264" type="qcurve" smooth="yes"/>
      <point x="1337.67164179" y="264.0"/>
      <point x="1493.23880597" y="299.970149254"/>
    </contour>
    <contour>
      <point x="565" y="225" type="qcurve" smooth="yes"/>
      <point x="621.71641791" y="225.0"/>
      <point x="670.0" y="347.611940299"/>
      <point x="670" y="520" type="qcurve" smooth="yes"/>
      <point x="670" y="590" type="line" smooth="yes"/>
      <point x="670.0" y="762.388059701"/>
      <point x="621.71641791" y="885.0"/>
      <point x="565" y="885" type="qcurve" smooth="yes"/>
      <point x="508.28358209" y="885.0"/>
      <point x="461.0" y="762.388059701"/>
      <point x="461" y="590" type="qcurve" smooth="yes"/>
      <point x="461" y="520" type="line" smooth="yes"/>
      <point x="461.0" y="347.611940299"/>
      <point x="508.28358209" y="225.0"/>
    </contour>
    <contour>
      <point x="1067" y="608" type="qcurve"/>
      <point x="1276" y="608" type="line"/>
      <point x="1274.50746269" y="781.134328358"/>
      <point x="1226.2238806" y="897.0"/>
      <point x="1171" y="897" type="qcurve" smooth="yes"/>
      <point x="1115.02985075" y="897.0"/>
      <point x="1067.0" y="776.656716418"/>
    </contour>
  </outline>
</glyph>
<glyph name="ring" format="1">
  <advance width="1024.0"/>
  <unicode hex="02DA"/>
  <outline>
    <contour>
      <point x="512" y="1638" type="qcurve" smooth="yes"/>
      <point x="650.805970149" y="1638.0"/>
      <point x="805.0" y="1516.76119403"/>
      <point x="805" y="1419" type="qcurve" smooth="yes"/>
      <point x="805.0" y="1318.25373134"/>
      <point x="650.805970149" y="1198.0"/>
      <point x="512" y="1198" type="qcurve" smooth="yes"/>
      <point x="373.194029851" y="1198.0"/>
      <point x="219.0" y="1318.25373134"/>
      <point x="219" y="1419" type="qcurve" smooth="yes"/>
      <point x="219.0" y="1516.76119403"/>
      <point x="373.194029851" y="1638.0"/>
    </contour>
    <contour>
      <point x="512" y="1315" type="qcurve" smooth="yes"/>
      <point x="556.029850746" y="1315.0"/>
      <point x="610.0" y="1373.47761194"/>
      <point x="610" y="1419" type="qcurve" smooth="yes"/>
      <point x="610.0" y="1463.7761194"/>
      <point x="554.537313433" y="1522.0"/>
      <point x="512" y="1522" type="qcurve" smooth="yes"/>
      <point x="469.462686567" y="1522.0"/>
      <point x="414.0" y="1463.7761194"/>
      <point x="414" y="1419" type="qcurve" smooth="yes"/>
      <point x="414.0" y="1373.47761194"/>
      <point x="467.970149254" y="1315.0"/>
    </contour>
  </outline>
</glyph>
<glyph name="hungarumlaut" format="1">
  <advance width="1024.0"/>
  <unicode hex="02DD"/>
  <outline>
    <contour>
      <point x="147" y="1522" type="line"/>
      <point x="569" y="1522" type="line"/>
      <point x="246" y="1212" type="line"/>
      <point x="4" y="1212" type="line"/>
    </contour>
    <contour>
      <point x="627" y="1522" type="line"/>
      <point x="1049" y="1522" type="line"/>
      <point x="725" y="1212" type="line"/>
      <point x="483" y="1212" type="line"/>
    </contour>
  </outline>
</glyph>
<glyph name="endash" format="1">
  <advance width="1024.0"/>
  <unicode hex="2013"/>
  <outline>
    <contour>
      <point x="956" y="770" type="line"/>
      <point x="956" y="430" type="line"/>
      <point x="68" y="430" type="line"/>
      <point x="68" y="770" type="line"/>
    </contour>
  </outline>
</glyph>
<glyph name="quotedblleft" format="1">
  <advance width="1044.48"/>
  <unicode hex="201C"/>
  <outline>
    <contour>
      <point x="442" y="1475" type="line"/>
      <point x="492" y="817" type="line"/>
      <point x="279" y="817" type="line"/>
      <point x="16" y="1475" type="line"/>
    </contour>
    <contour>
      <point x="948" y="1475" type="line"/>
      <point x="997" y="817" type="line"/>
      <point x="784" y="817" type="line"/>
      <point x="522" y="1475" type="line"/>
    </contour>
  </outline>
</glyph>
<glyph name="quotedblright" format="1">
  <advance width="1044.48"/>
  <unicode hex="201D"/>
  <outline>
    <contour>
      <point x="96" y="1475" type="line"/>
      <point x="522" y="1475" type="line"/>
      <point x="260" y="817" type="line"/>
      <point x="47" y="817" type="line"/>
    </contour>
    <contour>
      <point x="602" y="1475" type="line"/>
      <point x="1028" y="1475" type="line"/>
      <point x="766" y="817" type="line"/>
      <point x="553" y="817" type="line"/>
    </contour>
  </outline>
</glyph>
<glyph name="dagger" format="1">
  <advance width="1044.48"/>
  <unicode hex="2020"/>
  <outline>
    <contour>
      <point x="1004" y="1167" type="line"/>
      <point x="1004" y="858" type="line"/>
      <point x="641" y="952" type="line"/>
      <point x="737" y="690" type="line"/>
      <point x="594" y="0" type="line"/>
      <point x="451" y="0" type="line"/>
      <point x="307" y="690" type="line"/>
      <point x="403" y="952" type="line"/>
      <point x="41" y="858" type="line"/>
      <point x="41" y="1167" type="line"/>
      <point x="403" y="1071" type="line"/>
      <point x="307" y="1475" type="line"/>
      <point x="737" y="1475" type="line"/>
      <point x="641" y="1071" type="line"/>
    </contour>
  </outline>
</glyph>
<glyph name="Euro" format="1">
  <advance width="1286.144"/>
  <unicode hex="20AC"/>
  <outline>
    <contour>
      <point x="1231" y="252" type="line"/>
      <point x="1116.07462687" y="102.0"/>
      <point x="855.268656716" y="-25.0"/>
      <point x="659" y="-25" type="qcurve" smooth="yes"/>
      <point x="400.791044776" y="-25.0"/>
      <point x="61.0" y="321.970149254"/>
      <point x="61" y="666" type="qcurve" smooth="yes"/>
      <point x="61" y="809" type="line" smooth="yes"/>
      <point x="61.0" y="1153.02985075"/>
      <point x="402.089552239" y="1499.0"/>
      <point x="670" y="1499" type="qcurve" smooth="yes"/>
      <point x="872.985074627" y="1499.0"/>
      <point x="1112.07462687" y="1388.52238806"/>
      <point x="1227" y="1243" type="qcurve"/>
      <point x="948" y="995" type="line"/>
      <point x="870.388059701" y="1108.43283582"/>
      <point x="753.134328358" y="1188.0"/>
      <point x="680" y="1188" type="qcurve" smooth="yes"/>
      <point x="598.656716418" y="1188.0"/>
      <point x="504.447761194" y="1065.43283582"/>
      <point x="494" y="952" type="qcurve"/>
      <point x="862" y="952" type="line"/>
      <point x="862" y="788" type="line"/>
      <point x="489" y="788" type="line"/>
      <point x="489" y="666" type="line"/>
      <point x="862" y="666" type="line"/>
      <point x="862" y="502" type="line"/>
      <point x="496" y="502" type="line"/>
      <point x="510.925373134" y="399.76119403"/>
      <point x="613.71641791" y="287.0"/>
      <point x="707" y="287" type="qcurve" smooth="yes"/>
      <point x="780.134328358" y="287.0"/>
      <point x="911.388059701" y="374.76119403"/>
      <point x="989" y="477" type="qcurve"/>
    </contour>
  </outline>
</glyph>
<glyph name="uni2117" format="1">
  <advance width="1658.88"/>
  <unicode hex="2117"/>
  <outline>
    <contour>
      <point x="831" y="1499" type="qcurve" smooth="yes"/>
      <point x="1158.6119403" y="1499.0"/>
      <point x="1591.0" y="1066.6119403"/>
      <point x="1591" y="739" type="qcurve" smooth="yes"/>
      <point x="1591.0" y="412.134328358"/>
      <point x="1154.6119403" y="-25.0"/>
      <point x="827" y="-25" type="qcurve" smooth="yes"/>
      <point x="500.134328358" y="-25.0"/>
      <point x="68.0" y="408.134328358"/>
      <point x="68" y="735" type="qcurve" smooth="yes"/>
      <point x="68.0" y="1062.6119403"/>
      <point x="504.134328358" y="1499.0"/>
    </contour>
    <contour>
      <point x="831" y="61" type="qcurve" smooth="yes"/>
      <point x="1125.02985075" y="61.0"/>
      <point x="1491.0" y="441.71641791"/>
      <point x="1491" y="735" type="qcurve" smooth="yes"/>
      <point x="1491.0" y="1028.28358209"/>
      <point x="1121.02985075" y="1413.0"/>
      <point x="827" y="1413" type="qcurve" smooth="yes"/>
      <point x="533.71641791" y="1413.0"/>
      <point x="168.0" y="1033.02985075"/>
      <point x="168" y="739" type="qcurve" smooth="yes"/>
      <point x="168.0" y="445.71641791"/>
      <point x="537.71641791" y="61.0"/>
    </contour>
    <contour>
      <point x="879" y="1186" type="line" smooth="yes"/>
      <point x="1032.73134328" y="1186.0"/>
      <point x="1221.0" y="1052.04477612"/>
      <point x="1221" y="911" type="qcurve" smooth="yes"/>
      <point x="1221.0" y="763.23880597"/>
      <point x="1034.65671642" y="616.0"/>
      <point x="866" y="616" type="qcurve" smooth="yes"/>
      <point x="807" y="616" type="line"/>
      <point x="807" y="301" type="line"/>
      <point x="541" y="301" type="line"/>
      <point x="541" y="1186" type="line"/>
    </contour>
    <contour>
      <point x="850" y="805" type="line" smooth="yes"/>
      <point x="902.23880597" y="805.0"/>
      <point x="956.0" y="860.492537313"/>
      <point x="956" y="909" type="qcurve" smooth="yes"/>
      <point x="956.0" y="955.268656716"/>
      <point x="900.746268657" y="1001.0"/>
      <point x="850" y="1001" type="qcurve" smooth="yes"/>
      <point x="797" y="1001" type="line"/>
      <point x="797" y="805" type="line"/>
    </contour>
  </outline>
</glyph>
<glyph name="trademark" format="1">
  <advance width="1597.44"/>
  <unicode hex="2122"/>
  <outline>
    <contour>
      <point x="1526" y="1475" type="line"/>
      <point x="1526" y="782" type="line"/>
      <point x="1317" y="782" type="line"/>
      <point x="1317" y="1237" type="line"/>
      <point x="1313" y="1237" type="line"/>
      <point x="1202" y="782" type="line"/>
      <point x="1010" y="782" type="line"/>
      <point x="901" y="1237" type="line"/>
      <point x="897" y="1237" type="line"/>
      <point x="897" y="782" type="line"/>
      <point x="688" y="782" type="line"/>
      <point x="688" y="1475" type="line"/>
      <point x="1012" y="1475" type="line"/>
      <point x="1108" y="1069" type="line"/>
      <point x="1112" y="1069" type="line"/>
      <point x="1212" y="1475" type="line"/>
    </contour>
    <contour>
      <point x="616" y="1475" type="line"/>
      <point x="616" y="1292" type="line"/>
      <point x="442" y="1292" type="line"/>
      <point x="442" y="782" type="line"/>
      <point x="227" y="782" type="line"/>
      <point x="227" y="1292" type="line"/>
      <point x="53" y="1292" type="line"/>
      <point x="53" y="1475" type="line"/>
    </contour>
  </outline>
</glyph>
<glyph name="fi" format="1">
  <advance width="1462.272"/>
  <unicode hex="FB01"/>
  <outline>
    <contour>
      <point x="870" y="1532" type="qcurve"/>
      <point x="870" y="1266" type="line"/>
      <point x="843.134328358" y="1271.97014925"/>
      <point x="786.059701493" y="1278.0"/>
      <point x="748" y="1278" type="qcurve" smooth="yes"/>
      <point x="677.104477612" y="1278.0"/>
      <point x="614.0" y="1223.17910448"/>
      <point x="614" y="1159" type="qcurve" smooth="yes"/>
      <point x="614" y="1106" type="line"/>
      <point x="868" y="1106" type="line"/>
      <point x="868" y="831" type="line"/>
      <point x="614" y="831" type="line"/>
      <point x="614" y="0" type="line"/>
      <point x="203" y="0" type="line"/>
      <point x="203" y="831" type="line"/>
      <point x="18" y="831" type="line"/>
      <point x="18" y="1106" type="line"/>
      <point x="203" y="1106" type="line"/>
      <point x="203" y="1149" type="line" smooth="yes"/>
      <point x="203.0" y="1349.0"/>
      <point x="419.805970149" y="1554.0"/>
      <point x="631" y="1554" type="qcurve" smooth="yes"/>
      <point x="708.611940299" y="1554.0"/>
      <point x="821.492537313" y="1542.44776119"/>
    </contour>
    <contour>
      <point x="1378" y="1110" type="line"/>
      <point x="1378" y="0" type="line"/>
      <point x="961" y="0" type="line"/>
      <point x="961" y="1110" type="line"/>
    </contour>
    <contour>
      <point x="1389" y="1495" type="line"/>
      <point x="1389" y="1214" type="line"/>
      <point x="950" y="1214" type="line"/>
      <point x="950" y="1495" type="line"/>
    </contour>
  </outline>
</glyph>
<glyph name="bullet" format="1">
  <advance width="974.848"/>
  <outline>
    <contour>
      <point x="487" y="1188" type="qcurve" smooth="yes"/>
      <point x="664.611940299" y="1188.0"/>
      <point x="911.0" y="940.865671642"/>
      <point x="911" y="764" type="qcurve" smooth="yes"/>
      <point x="911.0" y="586.388059701"/>
      <point x="664.611940299" y="340.0"/>
      <point x="487" y="340" type="qcurve" smooth="yes"/>
      <point x="310.134328358" y="340.0"/>
      <point x="63.0" y="586.388059701"/>
      <point x="63" y="764" type="qcurve" smooth="yes"/>
      <point x="63.0" y="940.865671642"/>
      <point x="310.134328358" y="1188.0"/>
    </contour>
  </outline>
</glyph>
<glyph name="registered" format="1">
  <advance width="1028.096"/>
  <outline>
    <contour>
      <point x="643" y="999" type="qcurve"/>
      <point x="758" y="776" type="line"/>
      <point x="590" y="776" type="line"/>
      <point x="494" y="975" type="line"/>
      <point x="479" y="975" type="line"/>
      <point x="479" y="776" type="line"/>
      <point x="319" y="776" type="line"/>
      <point x="319" y="1307" type="line"/>
      <point x="530" y="1307" type="line" smooth="yes"/>
      <point x="620.298507463" y="1307.0"/>
      <point x="731.0" y="1226.58208955"/>
      <point x="731" y="1143" type="qcurve" smooth="yes"/>
      <point x="731.0" y="1093.74626866"/>
      <point x="685.537313433" y="1020.64179104"/>
    </contour>
    <contour>
      <point x="516" y="1489" type="qcurve" smooth="yes"/>
      <point x="711.52238806" y="1489.0"/>
      <point x="971.0" y="1229.01492537"/>
      <point x="971" y="1032" type="qcurve" smooth="yes"/>
      <point x="971.0" y="836.47761194"/>
      <point x="709.014925373" y="573.0"/>
      <point x="512" y="573" type="qcurve" smooth="yes"/>
      <point x="316.47761194" y="573.0"/>
      <point x="57.0" y="832.985074627"/>
      <point x="57" y="1030" type="qcurve" smooth="yes"/>
      <point x="57.0" y="1225.52238806"/>
      <point x="318.985074627" y="1489.0"/>
    </contour>
    <contour>
      <point x="516" y="625" type="qcurve" smooth="yes"/>
      <point x="692.119402985" y="625.0"/>
      <point x="911.0" y="854.626865672"/>
      <point x="911" y="1030" type="qcurve" smooth="yes"/>
      <point x="911.0" y="1206.11940299"/>
      <point x="689.611940299" y="1438.0"/>
      <point x="512" y="1438" type="qcurve" smooth="yes"/>
      <point x="335.880597015" y="1438.0"/>
      <point x="117.0" y="1208.11940299"/>
      <point x="117" y="1032" type="qcurve" smooth="yes"/>
      <point x="117.0" y="856.626865672"/>
      <point x="339.134328358" y="625.0"/>
    </contour>
    <contour>
      <point x="510" y="1073" type="line" smooth="yes"/>
      <point x="543.582089552" y="1073.0"/>
      <point x="578.0" y="1108.91044776"/>
      <point x="578" y="1141" type="qcurve" smooth="yes"/>
      <point x="578.0" y="1171.59701493"/>
      <point x="542.089552239" y="1202.0"/>
      <point x="510" y="1202" type="qcurve" smooth="yes"/>
      <point x="467" y="1202" type="line"/>
      <point x="467" y="1073" type="line"/>
    </contour>
  </outline>
</glyph>
